<svg version="1.2" xmlns="http://www.w3.org/2000/svg" viewBox="0 0 2720 1624" width="2720" height="1624">
	<title>trans_people_cropped-svg</title>
	<style>
		.s0 { fill: #ffffff } 
		.s1 { fill: #e6e8f2 } 
		.s2 { fill: #68d8f7 } 
		.s3 { fill: #fff0f2 } 
		.s4 { fill: #ff96a8 } 
		.s5 { fill: #b0f1ff } 
		.s6 { fill: #ffd5dd } 
		.s7 { fill: #ffbfca } 
		.s8 { fill: #ffbb96 } 
		.s9 { fill: #de8c68 } 
		.s10 { fill: #ff8ca7 } 
		.s11 { fill: #ffb791 } 
		.s12 { fill: #e69b73 } 
		.s13 { fill: #785331 } 
		.s14 { fill: #e3986f } 
		.s15 { fill: #a65a3c } 
		.s16 { fill: #ffecde } 
		.s17 { fill: #d98f68 } 
		.s18 { fill: #de8969 } 
		.s19 { fill: #ffe9b8 } 
		.s20 { fill: #edcc82 } 
		.s21 { fill: #ffb48c } 
		.s22 { fill: #d4765b } 
		.s23 { fill: #a65c47 } 
		.s24 { fill: #f0b7a8 } 
		.s25 { fill: #e06985 } 
		.s26 { fill: #ffbe9c } 
		.s27 { fill: #e39b76 } 
		.s28 { fill: #696969 } 
		.s29 { fill: #8897fc } 
		.s30 { fill: #ffb587 } 
		.s31 { fill: #c47941 } 
		.s32 { fill: #e2e4ed } 
		.s33 { fill: #ffba94 } 
		.s34 { fill: #fcba90 } 
		.s35 { fill: #fa7378 } 
		.s36 { fill: #52d1ff } 
		.s37 { fill: #ff9eaf } 
		.s38 { fill: #fab884 } 
		.s39 { fill: #e0925e } 
		.s40 { fill: #40a9db } 
		.s41 { fill: #ff9719 } 
		.s42 { fill: #ffcba8 } 
		.s43 { fill: #e6a67a } 
		.s44 { fill: #855c35 } 
		.s45 { fill: #b5bcbf } 
		.s46 { fill: #ffc8a3 } 
		.s47 { fill: #e6a173 } 
		.s48 { fill: #de5b5f } 
		.s49 { fill: #cf4427 } 
		.s50 { fill: #e6555a } 
		.s51 { fill: #f26666 } 
		.s52 { fill: #963e49 } 
		.s53 { fill: #fce0d4 } 
		.s54 { fill: #d4b1a3 } 
		.s55 { fill: #d65454 } 
		.s56 { fill: #cf873c } 
		.s57 { fill: #e8a374 } 
		.s58 { fill: #8797ff } 
		.s59 { fill: #6575db } 
		.s60 { fill: #d3d9de } 
		.s61 { fill: #a1adfc } 
		.s62 { fill: #dde3e8 } 
		.s63 { fill: #ccd1d6 } 
		.s64 { fill: #f59f64 } 
		.s65 { fill: #5b5c6b } 
		.s66 { fill: #c97e4a } 
		.s67 { fill: #69564f } 
		.s68 { fill: #5e4833 } 
		.s69 { fill: #d65a3e } 
		.s70 { fill: #874130 } 
		.s71 { fill: #f7d6c8 } 
		.s72 { fill: #b34b32 } 
		.s73 { fill: #d6dbe0 } 
		.s74 { fill: #45b7ed } 
		.s75 { fill: #ad6855 } 
		.s76 { fill: #a36a5a } 
		.s77 { fill: #82542b } 
		.s78 { fill: #a15039 } 
		.s79 { fill: #b0b0b0 } 
		.s80 { fill: #d9935d } 
		.s81 { fill: #ccf1fc } 
		.s82 { fill: #eaedfc } 
		.s83 { fill: #e3966d } 
		.s84 { fill: #70563b } 
		.s85 { fill: #9d624c } 
		.s86 { fill: #f27282 } 
		.s87 { fill: #a84652 } 
		.s88 { fill: #d15262 } 
		.s89 { fill: #ff758d } 
		.s90 { fill: #f55f79 } 
		.s91 { fill: #837aa8 } 
		.s92 { fill: #9da6ab } 
		.s93 { fill: #6574cf } 
		.s94 { fill: #9799ad } 
		.s95 { fill: #767887 } 
		.s96 { fill: #6d7dde } 
		.s97 { fill: #fa666b } 
		.s98 { fill: #fcaf7e } 
		.s99 { fill: #d5d7e0 } 
		.s100 { fill: #dddfeb } 
		.s101 { fill: #e39161 } 
		.s102 { fill: #b55b41 } 
		.s103 { fill: #f7e9e0 } 
		.s104 { fill: #bd835e } 
		.s105 { fill: #884431 } 
		.s106 { fill: #b9afa8 } 
		.s107 { fill: #6e4d2c } 
		.s108 { fill: #825438 } 
		.s109 { fill: #d98859 } 
		.s110 { fill: #c98673 } 
		.s111 { fill: #c75144 } 
		.s112 { fill: #a16b5c } 
		.s113 { fill: #cc8e7c } 
		.s114 { fill: #7ce0f7 } 
		.s115 { fill: #ff99aa } 
		.s116 { fill: #ffbc99 } 
		.s117 { fill: #ad6955 } 
		.s118 { fill: #c8f1fa } 
		.s119 { fill: #ffc7a1 } 
		.s120 { fill: #98563d } 
		.s121 { fill: #e0a274 } 
		.s122 { fill: #785534 } 
		.s123 { fill: #a36f60 } 
		.s124 { fill: #e39e70 } 
		.s125 { fill: #ffc096 } 
		.s126 { fill: #fa9419 } 
		.s127 { fill: #f29a05 } 
		.s128 { fill: #e2e8ed } 
		.s129 { fill: #ffe6e9 } 
		.s130 { fill: #5dd9fc } 
		.s131 { fill: #ff8fa2 } 
		.s132 { fill: #4cadcf } 
		.s133 { fill: #f5c6cc } 
		.s134 { fill: #ffbd91 } 
		.s135 { fill: #e09c6e } 
		.s136 { fill: #e87286 } 
		.s137 { fill: #555169 } 
		.s138 { fill: #7284fc } 
	</style>
	<g id="g8">
		<g id="g10">
			<path id="path12" class="s0" d="m-317 2360.7h3333.3v-2666.7h-3333.3z"/>
			<path id="path14" class="s1" d="m1588.4 1034.9h738v594.1h-738z"/>
			<path id="path16" class="s1" d="m2598.1 1199.6c2.1-6.3-6.8-7-6.8-7 0 0-46.6-3.9-50.1-9.6-2.9-4.5 1.9-7.8 1.9-7.8 0 0 4-2.9 12.6-2.7 21 1.8 18-8.2 18-8.2l-32.8-1.2c0 0-22.1 3.4-41 8.2-5.9 1.5-15 1.3-25.2 0.1q1.1-4.5 2.5-8.5l-21.4-0.2-0.2 0.3c-12.3-2.2-19.8-4.2-42.2-8.9-47.2-9.8-58.5-13.7-68.3-18.6-35.2-17.7-35.1-38.3-45.2-75.8-7.2-26.8-14.7-43.9-32.7-61.3-3.2-3.3-6-5.7-8.1-7.3l-0.1-0.1h-0.1l-57-28.9c-28.8-17.4-33.9-21.6-33.9-47.1v-8q2.7-2.5 5.1-5c7.3-7.5 13-18.8 15.6-30.4 0.7 1.9 1.8 2.1 3.8 1.9 4.9-0.6 7.8-11.4 10.9-20.5 1.7-5.2 6.1-20.2-2-23.6 2.1-8.3 3.7-18.1 3.7-26.1 0-47.4-34-86.4-74.5-86.4-40.5 0-74.5 39.5-74.5 86.8 0 9.4 2.2 20.6 4.8 29.5-1.7 5.3-3.5 14.1-1.1 21.9 0.8 2.8 1.7 7.3 2.8 11.2-0.5 5.6-1.4 10.7-2.5 14.7-2.8 10.9-1.3 29.3 5.3 42.8-4.1-15.7-5.8-29.1-0.9-41.8 0.8-2.1 1.5-4.6 2.1-7.5 0.6 0.5 1.3 0.7 2.1 0.6 2.3-0.5 3.6-2.7 4.2-5.8 2.4 12.4 8.6 24.6 16.5 32.7q2.4 2.5 5.1 5.1v7.9c0 16.4-2.1 24-11.2 31.9-1.4 1.2-2.9 2-4.8 2.5q-0.3-0.4-0.6-0.7l-26.6-2.5c-4.6-1.8-17.6-5.9-40.2-5.9-11.9 0-44.9 3.2-44.9 3.2 0 0-48.9-12.9-69.1-18.9 0.9-13.3 4.9-101.4 5.9-123.8q0.6-0.1 1.3-0.3l3.5-18.7-3-0.8 5-12.6c0 0 26.2-17.6 28.2-22.3 2.9-6.6 0.9-35.5 0.9-35.5 0 0 6.4-15.3-0.8-18.3-7.1-3-10.2-1.7-11.4 2.5 1.2-7.1-13.6-10.8-16.9-4.1-0.7-4.2-15.5-4.9-16.9 1-3.9-2.2-11.7-0.6-14.5 5.8-2.8 6.4-10.9 31-11.6 36.1-0.7 5-0.6 27.1-0.6 27.1l-2.2 8.3-2.7-0.8-7.8 18.3q0.5 0.5 1 0.9c-22.8 60.6-43.4 144.8-35.4 174.6 9.2 33.6 121.8 57 146.7 78.2 16.7 14.2 36 22.3 28.4 112.9-3.5 40.9-10.1 84.1-2.5 101.6 6 14 11.6 13.3 11.6 13.3l8.8 16.4c-3.5 10.1-6.9 20.9-10.3 32.1q-0.3 0-0.5 0-1.3 4.2-2.4 8.4 0.2 0 0.4 0c-27.9 95-50 212.2-50 212.2q12.9 3.6 25.9 6.5l-17.9 85.4h116.8l18.9-69.4c16 0.9 31.5 1.3 46.3 1.3l3.7 68.1h112.4l2.3-75.3c13.7-1.8 21.4-3.1 21.4-3.1 0 0-5.6-114.9-26.1-217.6h0.2l-1.7-8.5h-0.2q-0.7-3.4-1.4-6.7l6.6-16.2c0 0 14.2-4.9 16.1-10.5 8.8-25-16.7-51.7-25.3-91.8-2.3-10.4-2.6-21.4-1.6-32.3l7.8 7c23.3 20.7 47.8 35.4 66 44.5 41.3 20.8 97.5 9 132.5 0.7q0.2 0.6 0.4 1.1l21.9-3.1c-1.1-3.7-1.8-7.8-2.3-12 11-0.6 19.6-0.8 23 0.1 10.7 8.7 37 19.6 37 19.6l28.5 11 16.7 4c0.8 0.2 1.6-0.4 1.7-1.2 0.4-2.1-0.9-4.2-2.9-4.8l-12-4.6-9.8-6.5 8.8 0.2 15.6 0.1c0 0 18.7-0.7 17.5-5.4-1.2-4.8-16.3-3.8-16.3-3.8l-16.6-3 18.6-1.5c0 0 15.9-1.7 20.2-2.8 7.2-2.1-0.5-6.6-3.9-7z"/>
			<path id="path18" class="s1" d="m2509.6 1204.8c-13.8-8.1-29.8-90.3-47-119.5-22-37.3-70.8-62.3-78-65.8l0.1-0.3-11.5-5.4c12-2.3 20.9-5 30-8.5-1.6-5-3.5-9.5-4.5-11.7 3.1 2.3 6.8 5.7 10.2 9.2 7.3-3.3 18.6-9.5 27.9-15.6-5-17.3-9-24.3-15.2-36.1-6.3-12-0.2-27.7-5.5-46.1-6.5-22.5-17.8-22.2-23.6-45.4-8.1-32.3-33.8-50.7-59.2-45.7-36.4-19.1-82.3 10.7-89.3 45.7-4.9 25.2-15.9 22.7-26.9 39.7-9.4 14.4-4.5 26.7-11.7 38.3-6.9 11.2-19.6 15.2-24.8 40.1 6.1 6.2 40.9 40.8 81.1 37.9l1.4 0.2-9.6 4.2q0 0.2 0.1 0.4c-2.5 1.1-19.7 8.8-36.6 19.7-7.9 5.1-15.7 10.9-21.8 17.1-7 6.8-14.6 16.3-22.4 27.1-19.7 27-59.8 90.2-69.5 106.6-52.3 16-130.9 15.8-145.4 30.3l-0.2 0.1q0.1-1.9 0.3-3.8l-18.6 3.4c-1.7 21.6-0.6 30.8 4.8 51.7l18.6 0.1q-2.6-10-3.9-20.3 0.7 1.2 1.6 2.4 0.5 0.1 1 0.3v6.3c5.9 0.4 15.6 1.2 27.4 2 47.9 14.1 104.8 28.3 139.1 24 6.9-0.9 26.3-10 45-22.1 2.1-1 16-11.1 16-11.1l0.1-0.2c-1.2 48-10.1 87.8-13.4 123.7h278.8c-2.9-26.2-7.9-55.8-11.6-88.5 0 0 2.7 5.9 16.5 9.2 33.5 9.5 87.1 8.4 133.6 5.3l3.8-62.7c-27-10.2-60.9-21.6-87.2-36.2z"/>
			<path id="path20" class="s1" d="m2690.2 1111.2c0 0-19-121-53.1-156.1-2.5-3.1-14.5-11.5-17.3-13.4-7.3-5.1-30.8-15.6-46.5-22.2-6.1-2.9-32-12.7-31.2-36.5v-17.3c7.3-7.8 12.4-17.7 14.3-28.6q0.9 0.7 2 0.9c5.8 1.1 9.8-15.6 12.6-22.7 2.7-7 0.3-25.1-3.5-29q-1.3-1.3-2.8-1.1c2.7-11.7 5.2-25.3 6.1-39.9 1.2-19.9-20.8-53.5-71.7-52.7-50.9 0.9-69.6 35.1-68.6 55 0.7 14.2 3.4 26.3 6.4 37.6q-1.5-0.2-2.8 1.1c-3.9 3.9-6.3 22-3.5 29 2.7 7.1 6.8 23.8 12.6 22.7 0.9-0.1 1.7-0.6 2.4-1.3 2 11.8 7.6 22.3 15.7 30.4v17.5c0 5.1-2.7 9.8-7.1 12.3 0 0-109.9 38-128.9 64.8-17.8 25.2-65.5 122-65.5 122l13.9 9.9c-6.1 8-12.1 13.8-17.6 15.7-23.3 8.2-48.4 14.3-54.7 17.8-6.3 3.5-40.5 21.4-59.3 23.4-18.7 2-39.3 7.4-57.9 4.1-18.6-3.3-34.6-7.8-52.9-5.3-18.3 2.6-27.8-0.9-29.7 0.4-1.9 1.4 3.9 14.2 19.1 13.1 15.2-1 23.3 4.4 24 5.2-5.1 3.9-24.1 7.9-34.1 7.6-7.7-0.2-28.7-0.1-38.3 0-3.5 0-5.6 4.1-3.5 6.9 0.8 1.1 1.9 2.2 3.5 3.3-3.8 0.7-5.5 4.6 1.9 9.2 1.3 0.8 6.1 3.1 6.1 3.1-5.1-0.1-5.1 4.6-0.8 6.3 3.5 1.3 23.6 8.8 23.6 8.8h19.2l-11.9 8.4c0 0-11 3.1-12 5.3-0.9 2.2 4.3 5.9 14.8 3.7 10.5-2.1 31.8-14 31.8-14 0 0 25.1-5.5 29.9-8.4 4.7-2.9 12.6-13.3 18-14.2 5.3-0.8 108.5 5.7 159.5-11 7.8-2.3 43.1-18.9 78.1-48.6l7.8 5.7 13.9 9.9c-2.4 31.8-6.9 67.8-11.9 101.3 0 0-19.1 52.3-21.8 63.1-2 7.5 7 27.8 7 27.8l-1.9 25.4q0 0 0.2-0.1l-47.4 261.5h134.4l44.7-193.2 5.1 193.2h121.9l13.4-222.2c8-0.7 16-1 26.2-3.8-0.5-21.7-9.2-152.3-9.2-152.3l3.9-85.5z"/>
			<path id="path22" fill-rule="evenodd" class="s1" d="m2685.5 1403.6c3 16-1.5 19.6-6.1 26.9-3.1 4.9-7.6 14.3-10.1 19.8-1.3 2.9-3.5 5.4-6.2 7l-30.7 18.7c-11.8 6.6-6.5-6.6-1.5-10.6 1.4-1.1 3.4-2.7 5.6-4.6-0.6-2-1.3-7 3.1-10.9-2.4-1-4.2-3.4-3.9-6.4 0.8-9.6 2.3-25.8 2.2-30.5-0.1-7.1-5.2-20 0.1-36.3 7.4-22.3 6.3-33.9 6.3-33.9-5.3-34.8-31.4-68.3-36.3-106.8-4.5-34.7-5.8-77.5-5.8-77.5l-9-30.2 67.1-49.8c0.6 37.9-0.2 72.8-0.2 72.8 0 0 14.1 50.9 15.6 86.9 1.4 35.9-4.6 79.7-1.2 91.1 3.8 12.9-3.2 7.3 11 74.3zm-26 17l-5.2-8c0 0-2 3.1-2.5 22.6q-0.1 2.6-0.5 4.6c1.8-1.6 3.6-3.1 5.1-4.4z"/>
			<path id="path24" fill-rule="evenodd" class="s1" d="m1046.2 1503.2c-2.8-6-7.5-16-10.8-21.3-5-7.8-9.8-11.6-6.7-28.8 15.3-71.9 7.8-65.8 11.9-79.6 3.6-12.2-2.8-59.2-1.3-97.7 1.6-38.5 16.7-93.1 16.7-93.1 0 0-0.2-7.5-0.3-19.4l-32-23.6c0 0 20.4-129.7 57-167.3 2.6-3.4 15.5-12.3 18.5-14.4 7.8-5.4 33.1-16.7 49.9-23.8 6.5-3.1 34.2-13.6 33.3-39.1h0.3v-15.3q-2.5-3.2-5.2-6.8c-8.2-11.2-12-17.8-13.8-23.9q-0.8 0.6-1.8 0.8c-6.2 1.5-11.2-17.7-14.5-25.8-3.2-8.1-3.4-29.1 2.8-33.6 1.2-0.9 2.3-1.6 3.5-1.7-6.7-22.2-9.8-35.6-3.3-51.9 4.5-11.5 9.6-17.2 12.8-19.8-5.1-4.4-9.5-8.1-11.8-9.7 7.8-5.5 15.5-9.6 23.1-12.5 60.5-31.9 128.4 13.3 116.1 31.9 12.4 6.3 12.9 31 5.3 61.9 1.1 0.1 2.2 0.6 3.5 1.4 5.9 3.7 6.3 26.1 3 34.1-3.4 8.1-8.6 27.2-14.8 25.7q-0.9-0.2-1.7-0.8c-1.8 5.6-5.6 12.1-13.9 23.9q-2.4 3.4-4.7 6.3v17.5c0 0-0.7 11.7 9.4 24.4q0 0 0.5 0.5c8.1 7.3 19.9 12.7 23.4 14.4 16.9 7.1 42.1 18.3 49.9 23.7 3 2.1 15.9 11.1 18.5 14.5 36.6 37.6 57 167.3 57 167.3l-42.2 30.8c0 0 12.6 88 13.1 108.2-3.3 0.9 19 104.6 16 105.1l49 243.3h-141.6l-45.7-128.3 4.7 128.3h-140.9l-13.5-172.4c-8.6-0.8-17.2-1.1-28.2-4.2 0.5-19.4 7.1-121.3 9.2-153.5-10.1 31-28.5 59.6-33 89 0 0-1.1 12.4 6.8 36.4 5.7 17.5 0.2 31.3 0.1 38.9-0.1 5 1.5 22.4 2.4 32.7 0.3 3.2-1.6 5.8-4.2 6.8 4.7 4.2 3.9 9.5 3.3 11.8 2.4 1.9 4.5 3.7 6 4.8 5.4 4.4 11.1 18.4-1.6 11.4l-32.9-20c-2.9-1.8-5.2-4.4-6.6-7.5zm10.4-31.9l3.4 15.9c1.6 1.4 3.5 3 5.4 4.7-0.2-1.5-0.4-3.1-0.5-4.9-0.5-20.9-2.7-24.2-2.7-24.2z"/>
			<path id="path26" class="s1" d="m1373.4 1184.6l59.8 44.9 11 8.2 2.1 1.6c1.6 61.5-5.8 77.2 17.4 83.5l-7.5 27.7 0.2 0.1c-0.7 2.4-1.3 4.8-2 7.3-1 4-2.2 8.7-3.6 13.9l-0.5-0.1-1.6 7.6h0.2c-2.7 10.2-5.7 21.9-8.7 34.8h-0.3l-1.9 7.6q0.2 0 0.4 0c-6.4 28.7-12.4 61.9-13.9 94.2-0.8 17.8 4.8 57.8 11.7 113.1h122.6l5.1-90.3 23.9 90.3h127c-9.7-90.3-16.1-140.9-23.6-179.4-2-10.3-4-19.8-6.2-29h0.1l-1.8-7.4h-0.1c-4.4-17.5-9.4-34.3-16.1-54.2h0.1c-0.7-2.9-1.2-5.4-2-7.8l-5.8-27.8c19.8-10.2 19.9-18.3 22.2-72.6l3-2.5 10.4-8.8 65.1-54.9c0 0-34.5-61.7-51.1-84.7-11.6-16.1-26-24-43.3-32.6-2.4-38-6.9-84.2-14-137.3-11.2-84.4-49.8-105.2-74.3-93.7-17.1-13.8-65.9-6.5-100.3 71.8-25 56.9-60.8 102.3-63.9 161.3-7.1 5 17.1 22.6 11.3 30.5-16.6 23-51.1 84.7-51.1 84.7z"/>
			<path id="path28" class="s1" d="m396.1 1105.7l-40.1-99.6c0 0 55-53.8 89.6-77.7 7.3-5 31.4-1.3 47.1-7.9 6.1-2.9 11.7-5.2 16.4-7.7q-0.1-0.5-0.3-1l16-9.1q0.2 0.6 0.4 1.2l11.3-6.9c4.5-2.5 6.9-7.8 6.9-12.9v-17.8c-9.6-8.9-16.5-20.8-18.8-34.3-0.7 0.5-1.4 0.8-2.1 1-6.3 1.2-10.7-16.9-13.7-24.6-3-7.6-0.4-27.2 3.8-31.4q1.4-1.4 3-1.2c-2.9-12.6-5.6-27.3-6.5-43.2-1.4-21.5 22.4-57.9 77.5-57 55.1 0.9 75.3 37.9 74.3 59.5-0.8 15.4-3.8 28.5-7 40.7q1.6-0.2 3.1 1.2c4.2 4.2 6.8 23.8 3.8 31.4-3 7.7-7.4 25.8-13.7 24.6-0.9-0.2-1.8-0.7-2.6-1.4-2.4 14.2-9.7 26.8-20.2 35.9v18.2c0 5 2.6 9.7 7 12.3l7.2 4.1 0.3-1 17 8.1q-0.1 0.3-0.2 0.6c33.6 19.8 66 26.1 85 52.9 17.9 25.2 65.6 122 65.6 122l-13.9 9.9c6 8 12 13.8 17.5 15.7 23.3 8.2 48.4 14.2 54.8 17.8 6.3 3.5 40.4 21.3 59.2 23.4 18.7 2 39.3 7.4 57.9 4.1 18.6-3.3 34.6-7.8 52.9-5.3 18.3 2.6 27.8-1 29.7 0.4 1.8 1.4-3.9 14.1-19.1 13.1-15.2-1-23.3 4.4-24 5.2 5.1 3.9 24.1 7.9 34.1 7.6 7.7-0.3 28.7-0.1 38.2 0 3.6 0 5.7 4 3.6 6.9-0.8 1-2 2.2-3.5 3.3 3.8 0.7 5.5 4.6-1.9 9.1-1.4 0.9-6.1 3.1-6.1 3.1 5.1-0.1 5.1 4.7 0.7 6.3-3.4 1.3-23.5 8.9-23.5 8.9l-19.2-0.1 11.9 8.5c0 0 11 3.1 12 5.3 0.9 2.2-4.3 5.9-14.8 3.7-10.5-2.2-31.8-14-31.8-14 0 0-25.1-5.6-29.9-8.5-4.7-2.8-12.6-13.3-18-14.1-5.3-0.8-108.5 5.6-159.4-11-7.9-2.3-43.2-18.9-78.1-48.6l-7.8 5.6-13.9 10c2.4 31.7 6.9 67.8 11.8 101.3 0 0 19.1 52.2 21.9 63 1.9 7.6-7 27.8-7 27.8l1.8 25.4q0 0-0.2-0.1l47.4 260.6h-118.1l-60.9-192.3-5.1 192.3h-122l-13.6-212c-2.4-7.1-18.4-55.5-20.2-72.3-2.3-21.5 8.9-209 8.9-209l-9.7-48.5z"/>
			<path id="path30" fill-rule="evenodd" class="s1" d="m663.9 1161.4c-3.8 1.3-17.9 3.8-17.9 3.8l-16.6 2.5 15.1 1.6c0 0 13.5-1.8 14.8 2.4 1.4 4.2-15.4 6-15.4 6l-13.9 0.8-8 0.4 9.2 5.2 11 3.4c1.9 0.4 3.2 2.2 3 4.1 0 0.8-0.7 1.3-1.5 1.2l-15.2-2.5-26.3-8.1c0 0-24.3-8.1-34.4-15.3-1.9-0.4-5.6-0.2-10.5 0.2 0.6 4 1.4 7.2 2.2 9.1l-9.9 1.6q0.2 0.5 0.4 1.1l-19.5 4.1q-0.3-0.8-0.7-1.7c-31 7.9-78.5 11.8-117.1 0.2-6.4-1.9-39.7-23.9-66.4-47.7l-6.3-5.6c-1.7 7.5-3.4 13.7-3.5 17.9-1.1 73.2 21.6 101.2 13.3 143.6l3.3 24.1q-1 0.2-2.1 0.4l47.3 196.7c-2.8 1.6-6.4 3.1-10.6 4.5l16.3 75.5h-105l-17.4-61.5c-14.9 0.6-30.2 1-45.3 1l-3.5 98.6h-112.1l-2.2-105.9c-8.1-1.6-23.9-6.3-29.3-8.3 2.9-54.3 26.5-171.9 33.8-212.4-0.6-0.2-1.5-22.9-1.8-41.9-1.1 7.9-3.1 27.1-12.6 63.9-8.8 34.2-27.3 66.4-32.9 97.9 0 0-1.2 10.6 4.9 31.1 4.5 15-0.4 26.6-0.7 33.1-0.1 4.3 0.8 19.1 1.3 27.8 0.2 2.7-1.4 4.9-3.6 5.8 3.9 3.6 3.1 8.1 2.5 10 2 1.8 3.8 3.3 5 4.3 4.5 3.8 9 15.9-1.6 9.6l-27.5-17.7c-2.5-1.6-4.4-3.8-5.5-6.5-2.2-5.1-6-13.8-8.8-18.3-4-6.8-8-10.1-5-24.7 14.5-60.7 8-55.7 11.8-67.4 3.4-10.3-1.1-50.3 1-83.1 2.2-32.7 19.4-80.4 19.4-80.4 0 0 0.1-33.3 1.6-68.9 0 0 5.4-112 45.6-145.9-6.1-49.9 14.9-64 14.7-88.7-0.2-25.1 4.3-28.2 11.8-39.3 7.1-10.6 6.8-18.9 5.7-29.2-1.7-15.9 3.6-38 14.3-53 1.7-23 10.8-43.3 30.2-52.1 6.2-14.1 25.6-18 42.9-18 37.7 0 70.2 20.9 70.2 69.2 11 15.9 13.2 35.1 11.9 48.9-0.9 9.5 0.5 17.6 7.2 27.4 7 10.1 10.3 11.4 10.4 34.6 0 24.4 15.1 20.2 12.2 41.8-0.7 5-3.2 9.8-6.9 14.2 7.5 6.1 14.1 12.8 18.7 20.1 14.3 22.4 33.6 61.1 37.4 67.8 11 19.2 23 32.1 27.7 34.9 8.5 5 24.4 13.2 67.4 19.1 19.8 2.7 26.9 2.6 37.6 3.1q0.2-0.4 0.5-0.8l19.3-1.1q-0.2 0.5-0.3 1.1l10.2-0.3c-0.9 2-1.6 4.4-2.1 7.1 5.2-0.2 9.7-0.7 13.1-1.8 16.6-5.5 36.2-9.9 36.2-9.9l29.5-1c0 0 3.3 8.8-15.7 8.5-7.7 0.3-11.1 3.2-11.1 3.2 0 0-4.1 3.3-1.2 7.1 3.5 4.9 45.6 5.5 45.6 5.5 0 0 8 0 6.5 5.9 3 0.2 10.3 3.7 3.9 6zm-596.8 349.2q-0.3-1.9-0.3-4.2c0-17.8-1.8-20.6-1.8-20.6l-5 7.1 2.5 13.6c1.4 1.2 3 2.6 4.6 4.1z"/>
			<path id="path32" class="s1" d="m363.2 1035.8h824l-43.9 593.2h-780.1z"/>
			<path id="path34" class="s1" d="m1141.1 1190.3c-13.8-8-29.8-90.2-47.1-119.4-22-37.4-70.8-62.3-77.9-65.8l0.1-0.3-11.5-5.5c11.9-2.2 20.9-4.9 29.9-8.4-1.6-5-3.4-9.5-4.4-11.7 3 2.3 6.8 5.7 10.1 9.2 7.3-3.4 18.6-9.5 28-15.6-5-17.3-12.8-23.9-19-35.6-6.3-12.1-0.2-27.7-5.5-46.2-6.5-22.4-14-22.7-19.8-45.8-8.2-32.3-33.9-50.7-59.3-45.7-36.3-19.1-82.3 10.7-89.2 45.7-5 25.2-15.9 22.7-27 39.7-9.3 14.4-4.5 26.6-11.6 38.2-7 11.3-19.7 15.3-24.9 40.2 6.2 6.2 40.9 40.7 81.2 37.8l1.3 0.3-9.6 4.1q0.1 0.2 0.2 0.4c-2.5 1.1-19.7 8.8-36.6 19.8-7.9 5.1-15.7 10.9-21.9 17.1-6.9 6.8-14.5 16.2-22.4 27-19.6 27-59.8 90.3-69.4 106.7-52.3 16-131 15.7-145.5 30.3l-0.1 0.1q0.1-1.9 0.2-3.8l-18.6 3.4c-1.6 21.6-0.6 30.7 4.9 51.7l18.6 0.1q-2.6-10-3.9-20.3 0.7 1.1 1.5 2.4 0.5 0.1 1.1 0.3v6.2c5.8 0.5 15.5 1.3 27.4 2.1 47.9 14.1 104.7 28.2 139.1 24 6.8-0.9 26.3-10 44.9-22.1 2.2-1.1 16.1-11.1 16.1-11.1v-0.3c-1.2 48-10 87.9-13.3 123.7h278.7c-2.9-26.2-7.8-55.7-11.5-88.4 0 0 2.7 5.9 16.4 9.2v-0.1c33.5 9.6 87.1 8.5 133.7 5.3l3.8-62.7c-27.1-10.1-61-21.5-87.2-36.2z"/>
			<path id="path36" class="s1" d="m294.5 1256.9l2.1-4.9c-1 43.8-6.5 63.7 13.8 84.3q-3 10.9-6 21.8l0.1 0.1-2.7 8.9h0.2c-6.9 14.9-13.2 32.9-19 52.8l-0.3 0.1q-1.3 4.4-2.5 8.9l0.2-0.1q-0.7 2.7-1.4 5.3h333.5c0.9-7.1 1.3-14.2 1.3-20.9 0 0-0.1-1.7-0.6-4.2q-0.1-0.5-0.2-1.1-0.2-0.9-0.3-1.9-0.3-1.6-0.5-3.2-0.2-1.2-0.4-2.3-0.2-1.3-0.4-2.6-0.2-1.3-0.4-2.6-0.2-0.9-0.3-1.8-1.4-8.1-2.7-15.6c-7.4-42.1-14.4-70.6-17.5-92.4-11.1-78.5 6.2-152.5-22.3-193.5-6.7-9.7-14.7-18.9-26.2-25.7l-30.4-13.8q-1.9 1.1-3.9 2.2l-24.3-8c-17.8-5.5-26.4-12.9-30.2-22.7 3.7-1.1 6.7-4 7.8-7.9q0.1-0.6 0.2-1.1c5.7 1 11.3-2.5 12.8-8.2q0.1-0.7 0.2-1.3c5.6 0.8 11-2.7 12.5-8.2 0.3-1.3 0.4-2.6 0.3-3.8 4.7-0.4 8.8-3.6 10.1-8.3 0.3-1.5 0.4-3 0.2-4.4 4.4-0.5 8.2-3.7 9.4-8.2 0.6-2.1 0.5-4.1-0.1-6 3.7-1 6.8-3.9 7.9-8 0.7-2.5 0.4-5.1-0.6-7.3q0.3-0.2 0.5-0.5c2-0.9 3.8-2.4 5-4.5 2.7-4.6 1.7-10.2-2-13.7q-0.1-0.4-0.1-0.8 0.5-0.6 0.9-1.4c3-5 1.5-11.4-3.1-14.7q0.4-0.4 0.6-0.9c3.2-5.4 1.4-12.2-4-15.3q-0.5-0.3-0.9-0.5c2.4-5.2 0.6-11.6-4.5-14.5q-0.6-0.4-1.2-0.6c2.3-5.2 0.4-11.3-4.6-14.2-1.1-0.7-2.3-1.1-3.5-1.4 0.9-4.5-1.1-9.4-5.3-11.8 0.2-1.2 0.3-2.4 0.1-3.6-0.4-2-1.3-3.7-2.6-5.1 1.4-3 1.2-6.8-0.9-9.7-1.7-2.3-4.2-3.6-6.8-3.9 1-2.9 0.6-6.1-1.3-8.7-1.8-2.5-4.6-3.9-7.4-4 1-4.2-1-8.7-5-10.8-2.7-1.4-5.8-1.3-8.4-0.1-0.6-2.6-2.4-4.9-4.9-6.2-2.8-1.5-5.9-1.4-8.6-0.1-1.1-3.5-4.1-6.2-7.9-6.6-2.6-0.3-5 0.4-6.9 1.8-1.3-3.1-4.1-5.5-7.7-5.9-3.2-0.4-6.3 0.9-8.3 3.1-1.9-2.8-5.2-4.5-8.8-4.2-3.1 0.3-5.7 1.9-7.2 4.3-2-1.9-4.7-3-7.7-2.8-4.1 0.4-7.5 3.3-8.5 7.2-2.2-1.2-5-1.5-7.6-0.6-2.7 1-4.7 3-5.7 5.4-3.5-2.5-8.4-2.5-11.9 0.3-2.6 2.1-3.7 5.3-3.4 8.4-3.7-0.5-7.4 1.1-9.5 4.4-1.8 2.8-2 6.2-0.7 9-2.5 0.5-4.7 2-6.2 4.3-1.6 2.5-1.9 5.5-1 8.2-4.1 0.3-7.7 3.3-8.6 7.6-0.4 1.7-0.3 3.4 0.3 5q-0.6 0.3-1.2 0.6c-4.3 2.5-6.2 7.5-5.2 12.2-1.3 0.2-2.5 0.7-3.6 1.3-5.1 3-6.9 9.3-4.5 14.6q-0.7 0.2-1.3 0.6c-5.1 3-6.9 9.5-4.3 14.8q-0.5 0.2-1 0.5c-5.4 3.2-7.2 10.2-3.9 15.6q0.3 0.5 0.6 0.9c-4.7 3.5-6 10-3 15q0.5 0.8 1 1.4-0.1 0.4-0.1 0.8c-3.8 3.6-4.7 9.4-1.9 14 1.2 2.1 3.1 3.6 5.1 4.6q0.3 0.2 0.6 0.4c-1 2.3-1.3 4.9-0.6 7.5 1.1 4.1 4.3 7 8.1 8-0.5 1.9-0.6 4 0 6.1 1.2 4.6 5.2 7.8 9.6 8.3-0.1 1.4-0.1 2.9 0.3 4.4 1.4 4.8 5.6 8.1 10.4 8.3-0.1 1.3 0 2.6 0.3 3.9 1.6 5.7 7.1 9.1 12.8 8.2q0.1 0.7 0.3 1.4c1.5 5.7 7.3 9.2 13 8.1q0.1 0.6 0.3 1.1c0.9 3.2 3 5.7 5.7 7.1-3.7 10.4-12.2 18.1-30.6 23.8l-25.4 8.2q-1.3-0.8-2.6-1.7l-25.9 15.4 0.3 0.2c-9.7 5.8-18.5 14.1-26.8 28.1-23.1 39.4-54.2 144.8-54.2 144.8 0 0 40.5 107 53.2 96.8 8.1-6.5 27.5-50.8 40.4-81.6z"/>
			<path id="path38" class="s2" d="m1395.1 787.9q-0.7 5-1.3 9.7c-6.4 46.5-10.7 73.3-10.7 73.3 177.7-68.9 422.3-109.7 605.7-59.5l-1-63.5-0.1-6.2c-179.4-60-410.3-25-592.6 46.2z"/>
			<path id="path40" class="s2" d="m1983.9 479.8l-0.3-18.2-1-67.8c-220.9-12.1-390-2.5-554.7 75.8-1.5 20-3 39.6-4.6 58.6q-0.9 10.1-1.8 19.9c168-75.3 351.6-91.1 562.4-68.3z"/>
			<path id="path42" class="s3" d="m1414 627.4q-1.9 17.9-3.7 34.8-2.6 23.7-5.1 45.2c176.9-72 390.9-100.3 581.3-53.8l-0.8-48.8-0.5-38.5c-200.7-34.1-399.1-12.2-571.2 61.1z"/>
			<path id="path44" class="s4" d="m1405.2 707.4q-1.4 11.5-2.7 22.3c-2.6 21.6-5.1 41.1-7.4 58.2 182.3-71.2 413.2-106.2 592.6-46.2l-0.9-65.3-0.3-22.8c-190.4-46.5-404.4-18.2-581.3 53.8z"/>
			<path id="path46" class="s4" d="m1983.9 479.8c-210.8-22.8-394.4-7-562.4 68.3-1.4 16.1-2.8 31.8-4.3 47q-1.6 16.5-3.2 32.3c172.1-73.3 370.5-95.2 571.2-61.1l-0.5-33.1z"/>
			<path id="path48" class="s5" d="m1711.1 620.4l277.7 191-1.3-86.3-211.2-145.4z"/>
			<path id="path50" class="s6" d="m1983.5 450.6l-70.7 44.1 72 49.5z"/>
			<path id="path52" class="s7" d="m1844.5 537.2l-68.2 42.5 211.2 145.4-1.3-90.5z"/>
			<path id="path54" class="s3" d="m1984.8 544.2l-72-49.5-68.3 42.5 141.7 97.4z"/>
			<path id="path56" class="s2" d="m2425.2 140.8l-19-72.8c-273.8-31.4-474.9 20.3-642.1 130.5-24.2 16-52.1 60.3-54.6 91.7l0.1 16.6c7-5.4 14.3-10.3 21.4-14.8 181.3-115.3 399.3-173.3 694.2-151.2z"/>
			<path id="path58" class="s4" d="m2445.7 218.9l-20.5-78.1c-294.9-22.1-512.9 35.9-694.2 151.2-7.1 4.5-14.4 9.4-21.4 14.8l0.4 76.4c7.8-5.5 15.8-10.7 23.7-15.4 196.2-118.7 421.2-174.5 712-148.9z"/>
			<path id="path60" class="s4" d="m2486.6 375.5l-20.5-78.4c-286.4-29.2-518.4 24.3-729.7 146.4-8.7 5.1-17.5 10.4-26.1 16l0.4 76c235.2-137.3 482.4-194.4 775.9-160z"/>
			<path id="path62" class="s3" d="m2466.1 297.1l-20.4-78.2c-290.8-25.6-515.8 30.2-712 148.9-7.9 4.7-15.9 9.9-23.7 15.4l0.3 76.3c8.6-5.6 17.4-10.9 26.1-16 211.3-122.1 443.3-175.6 729.7-146.4z"/>
			<path id="path64" class="s2" d="m1710.7 535.5l0.4 84.9c241.5-137.6 495-194.4 798-159.1l-22.5-85.8c-293.5-34.4-540.7 22.7-775.9 160z"/>
			<path id="path66" class="s8" d="m2401.3 965.7l0.8-22.1q0.1-3.2 1.1-6.2l5.3-15.2c0 0 3.8-10 4.8-13.9 0.9-3.9-1.2-8.7 0.7-10.7 4.2-4.4 14.4 3.2 13.2 17.4-1.2 14.2-0.6 17.7-0.6 17.7z"/>
			<path id="path68" class="s8" d="m2421.5 930.1l11.7-6.6c0 0 11-13.3 16.1-12.7 5.2 0.7 20.1 8.9 20.1 8.9 0 0 14.5 0.8 16.7 6 3.3-0.5 8.6 1.4 10 5.1 2.6 7.2 6.6 18.8 5 20.7-0.7 0.9-2.8 2.3-4.4 1.8-0.7 1.8-5.4 4.9-12-0.1-7.1 4.9-16.7 15.7-23 18.8-6.3 3.1-15.9 10.5-25.3 8.1-9.5-2.4-27.9-10.5-27.9-10.5z"/>
			<path id="path70" class="s9" d="m2446.2 924.5c1.8 2.9 8.4 6 12.8 6.8 3.3 4.3 11 14.7 15.5 17.6 3.4 2.2 8 0.5 8 0.5l2.2 3.8-3-2.4c-7 4.4-14.6-5.8-25-17.8-3.2-1.4-8.2-3.2-10.5-8.5z"/>
			<path id="path72" class="s0" d="m2196.5 968.6c12.9 9.3 54.8 37.3 72.3 63.7l-59.6 77.6-63 21.7-27.5-6.7-0.6-180.9z"/>
			<path id="path74" class="s10" d="m2005.6 1162c20.3-3.3 24.9-5 53.3-10.8 47.5-9.9 41.4 22.9 51.2 18 35.4-17.7 47.5-76.6 62.9-113 10.5-30.6 22.8-57.7 41.2-69.1l12.9-7.6 21.4 137c-4.3 6.6-1.1 26.2-7.5 33.4-28.7 32.2-84.5 81.9-108.5 94-44.3 22.2-85-20.7-119.4-28.9z"/>
			<path id="path76" class="s11" d="m2456.5 984.5l-37.4-37.9c-16.3-0.8-24 0.6-29.2-3.8-9.1-8-11.2-15.7-11.2-32.1v-22.4h-37-36.9v22.4c0 25.6-5.1 29.9-34.1 47.4l-38.1 17.2c0 0-25.9 35.4-5.2 88.5 14.8 38 65.2 56.2 114.3 54.6 49.2 1.6 99.5-16.6 114.4-54.6 20.7-53.1 0.4-79.3 0.4-79.3z"/>
			<path id="path78" class="s11" d="m2281.7 842.4c-2.4-8-5.2-15.2-6.8-21.7-5.6 1.9-7.7 20.7-5.3 27.5 2.3 6.8 5.3 22.8 10.8 22.1 8.7-1.3 2.3-21.9 1.3-27.9z"/>
			<path id="path80" class="s11" d="m2401.1 841.6l9.4-17.7c1 2 6.1 15.2 2.8 26.4-1.9 6.4-3.9 20.9-8.9 20-8.6-1.6-3.3-28.7-3.3-28.7z"/>
			<path id="path82" class="s12" d="m2341.9 775.9c-23.2 0-42 26.2-42 58.5v36.7c0 32.2 24 58.7 42 58.7 20.2 0 42-26.5 42-58.7v-36.7c0-32.3-18.8-58.5-42-58.5z"/>
			<path id="path84" class="s11" d="m2341.7 758.2c-32.2 0-67.5 25-67.5 57.3l8.4 37.4c0 15.8 7 33.8 17.3 44.3 10.6 10.9 25.4 24.9 41.8 24.9 16.5 0 31.3-14 41.9-24.9 10.3-10.5 17.6-27.9 17.6-43.7l9.4-34.1c0-32.3-36.6-61.2-68.9-61.2z"/>
			<path id="path86" class="s13" d="m2325.1 833.1c-3.1-1.6-5.1-2-6.5-1.9 1.3 5.7-4 8.2-7.8 7.9-3.9-0.2-6.8-3.5-6.7-7.3-2.4 0.3-8.3 1-12.4-1.8 8.6 0.6 23.4-11.4 33.4 3.1z"/>
			<path id="path88" class="s13" d="m2358.4 833.1c3.1-1.6 5.1-2 6.5-1.9-1.3 5.7 3.9 8.2 7.8 7.9 3.8-0.2 6.8-3.5 6.7-7.3 2.4 0.3 8.3 1 12.4-1.8-8.6 0.6-23.4-11.4-33.4 3.1z"/>
			<path id="path90" class="s14" d="m2330 871c-4.6-5.9-2-11.4 1.6-15.5 2.5-3 5.4-6.3 6.7-11.6 1-4.1 0.2-11.4-0.8-14.8 1.9 3.5 5 10.7 4.3 15.9-1 6.4-4.2 10.1-6.9 13.3-3.6 4.2-3.8 7.7-1.9 10.2 1.7 2.3 9.9 4.7 15.4 3-2.5 2.7-13.5 5.9-18.4-0.5z"/>
			<path id="path92" class="s15" d="m2342.1 884.9c-9.3 0.1-18.4 2.6-21 4.3 2.5 6.2 11.4 11 21 11 9.6 0 18.7-4.7 21.3-10.8-2.4-1.3-12-4.4-21.3-4.5z"/>
			<path id="path94" class="s16" d="m2325.1 893.1c0 0 13.3 2.5 34 0.3-4.2 4.8-13.3 6.5-17.1 6.5-3.7 0-13.1-2-16.9-6.8z"/>
			<path id="path96" class="s16" d="m2335.8 882.7c3.2 0.2 7 0.2 11.3 0.1 3.7-0.1 10.4 2.4 8.5 3.3-4.3 2.1-8.2 2.8-13.6 2.8-5.2 0-9.7-0.7-13.9-2.8-2.1-1 3.1-2.3 7.7-3.4z"/>
			<path id="path98" class="s17" d="m2342.1 899.7c-9.6 0-16.8-5.7-21.1-10.4 3.7 6.7 5.4 11.4 8.3 13.6 4.9 3.7 9.6 3.5 12.4 3.5h0.8c2.8 0 7.1 0.2 12.1-3.5 2.8-2.2 5-6.9 8.6-13.6-4.3 4.7-10.7 10.4-21.1 10.4z"/>
			<path id="path100" class="s11" d="m2342.1 897.1c-10.9 0-18.9-5.6-23.8-10.3 4.1 6.6 6.1 11.4 9.3 13.5 5.6 3.7 10.9 3.6 14 3.6h1c3.1 0 8 0.1 13.6-3.6 3.2-2.1 5.6-6.9 9.8-13.5-4.9 4.7-12.2 10.3-23.9 10.3z"/>
			<path id="path102" class="s18" d="m2342 880.9c-9.2-0.1-18.1 6.1-20.9 8.3 0 0 6.7-2.2 20.9-2.2 14 0 21.4 2.4 21.4 2.4-2.9-2.2-11.9-8.5-21.4-8.5z"/>
			<path id="path104" class="s19" d="m2342.4 712c-40.6 0-74.6 39-74.6 86.4 0 10.5 2.8 23.9 5.8 33.3q5.8-3.3 12.3-6l8.5-37-5 35.6-0.9 0.4q7.5-3 15.6-5.1c2-9.6 9.3-45 15.8-58.9l-9.8 57.5c6.8-1.5 14-2.5 21.3-3.1 1.7-7.5 5.4-25.6 5.4-25.6l-0.7 25.4q3.1-0.1 6.3-0.1c6.7 0 13.4 0.4 19.8 1.2l-0.2-56.2 5.1 56.9q9.1 1.5 17.7 4l-0.7-16.8 4.5 18c8 2.6 15.6 5.9 22.6 9.8 3-9.4 5.8-22.3 5.8-32.9 0-47.3-34.1-86.8-74.6-86.8z"/>
			<path id="path106" class="s19" d="m2273.6 831.7c2.6 11.6 1 30.7-1.5 40.5-2.5 9.8-2.6 27.7 4.1 39-3.6-11.3-4.5-26.7-0.2-38.1 4.3-11.4 6.7-38.4 3.9-48.7-2.7-10.3-6.3 7.3-6.3 7.3z"/>
			<path id="path108" class="s19" d="m2411.4 831.1c-3 15.7-1.3 34.2 1.5 45.1 2.8 10.9 1.3 29.3-5.2 42.8 4-15.7 5.7-29.1 0.9-41.8-4.8-12.7-6.1-42.9-3.1-54.4 3.1-11.4 5.9 8.3 5.9 8.3z"/>
			<path id="path110" class="s20" d="m2339.3 727.6c26.9 0 50.9 17 64.2 42.1-10-28.5-34-49.2-61.1-49.2-17.1 0-33.5 8-46 22.5q-0.6 0.7-1.2 1.4c12.5-10.5 27.8-16.8 44.1-16.8z"/>
			<path id="path112" class="s20" d="m2342.4 722.5c-10.2 3.6-19.6 10.2-27.5 19.3q-0.6 0.7-1.2 1.4c10.9-9.2 24-15.2 38.1-16.5z"/>
			<path id="path114" class="s20" d="m2348.3 724.6c-9.6 6-14.2 14.1-14.6 14.6 7.6-8.3 13.6-10.6 18.6-11.6 6.6-1.3 0.3-5.6-4-3z"/>
			<path id="path116" class="s20" d="m2344.9 727.3q2.2 0.4 4.3 1c18.7 5.4 32 22 36.3 42-1.3-21.8-13.9-40.9-32.8-46.2-4.4-1.3-8.9-1.8-13.5-1.5z"/>
			<path id="path118" class="s21" d="m2516.7 1629l-49.8-236.1-115.3 17 0.5-9.1-142.2 4.8 7 223.4h113l8.4-151.4 13.6-21.1 47.4 172.5z"/>
			<path id="path120" class="s22" d="m2193.1 1549.8c0 0 8.8-178.5 44-290.1l108.1 3.4 108.1-3.6c37.1 95 71.5 276.7 71.5 276.7-158.4 44.4-331.7 13.6-331.7 13.6z"/>
			<path id="path122" class="s23" d="m2455.8 1264.4c-33.5 9.1-72.3 13.4-106.9 13.4-34.4 0-80.1-4-113.3-13 0.8-2.8 1.8-7.1 2.6-9.9l107.6 4.3 3.6 0.1 103.8-3.5z"/>
			<path id="path124" class="s22" d="m2236.6 1255.9c65.7 18 151 18 216.7 0-1.9-6.9-3.8-25.8-5.7-32.8-61.9 17-143.3 17-205.3 0-1.9 7-3.8 25.9-5.7 32.8z"/>
			<path id="path126" class="s23" d="m2353.2 1232.9h-8v156.7c-5.6-1.8-9.7-7-9.7-13.3v-100h-6.3v100c0 10.8 8.4 19.6 19.1 20.2l4.5 0.1z"/>
			<path id="path128" class="s23" d="m2472.2 1314.5q1.2 4.3 2.4 8.5c-26.3 0.3-51.2-22.1-57.9-53.9l8.3-1.7c5.6 26.9 25.7 46.1 47.2 47.1z"/>
			<path id="path130" class="s24" d="m2336.1 1255.8c0-3.6-2.9-6.5-6.6-6.5-3.6 0-6.5 2.9-6.5 6.5 0 3.6 2.9 6.6 6.5 6.6 3.7 0 6.6-3 6.6-6.6z"/>
			<path id="path132" class="s23" d="m2268.1 1269.1l-1.2 5.1c-5 27.1-24.5 46.8-45.9 48.3l-1.8 8.5c26.3-0.3 50.1-23.3 56-55.2l1-5.1z"/>
			<path id="path134" class="s10" d="m2611 778.6l-47.1 16.3c3.3 17 19.7 107.8 18.1 122-20.3 6-74.2 22.4-74.2 22.4 0 0-33.3-3.2-45.2-3.2-29.2 0-42.4 6.8-42.4 6.8q-0.9 0.5-0.9 0.5l-21.3 12.3-2.5 10.6c-28.6 18.6-58.1 25.8-58.1 25.8 0 0-60.7 16-124.1-5-3 2.3-7.7 6.4-12.9 12.4-19.7 23 3.2 85.5 3.2 85.5 0 0 32 62.8 21.5 111.6-8.6 40.3-34.4 67.1-25.5 92.3 2 5.6 16.2 10.5 16.2 10.5l6.7 16.4c0 0 39.9-73.8 82-74.3 63.9 1.7 157 40.7 157 40.7l8.9-16.5c0 0 5.7 0.7 11.7-13.4 7.6-17.6-4.6-59.4-9.6-100.3-10.5-85.9 18.8-101.2 35.6-115.4 25.1-21.3 131.4-43.1 140.6-76.9 8.4-30.9-13.9-119.9-37.7-181.1z"/>
			<path id="path136" class="s25" d="m2217.5 1296.7c2.5-26.1 5.1-38.9 61.8-56.7-51.9 19.8-60.4 58.2-61.8 56.7z"/>
			<path id="path138" class="s25" d="m2468.4 1264.4c-4.6-9.1-46.1-35-154.1-30.4 68.7-2.1 154.1 30.4 154.1 30.4z"/>
			<path id="path140" class="s25" d="m2299.8 1006.5c-32.3 0-62-6.1-86.5-19.4l20.3-17c25.7 11 58.5 14.8 90.7 10.8 33.4-4.1 57.5-20 71.1-36.4l26.7-2.5c0 0-21.2 53.1-94.9 62.8-9.1 1.2-18.3 1.7-27.4 1.7z"/>
			<path id="path142" class="s25" d="m2226.8 1165.1c-1.4-14.3-7.7-56.7-11.1-87.9-3.6 34.7 3.7 92.2 3.9 95.1 4.5-4.4 7.2-7.2 7.2-7.2z"/>
			<path id="path144" class="s26" d="m2606.1 773l-5.6-18.2-27 2.1-13.9 7.9 5.2 19.1z"/>
			<path id="path146" class="s26" d="m2606.3 700.4l1.5 12.9c1.1 9.1 0.2 18.4-2.7 27.2l-4.6 14.3-39.7 14.1-14.7-60.4 14.2-46.4 24.1 14z"/>
			<path id="path148" class="s26" d="m2580.6 691.8l4.2-17.3c1.1-4.3 5.3-6.9 9.6-6 4.3 1 7 5.3 6 9.6l-3.8 16.6q-0.4 1.7-1.4 3.1l-9 12.9c-1.9 2.8-5.7 3.6-8.6 1.8-2.7-1.7-3.8-5.1-2.5-8z"/>
			<path id="path150" class="s26" d="m2592.3 701.7l3.9-14.2c1-3.5 4.8-5.5 8.6-4.4 3.9 1.1 6.2 4.9 5.3 8.4l-3.6 13.6q-0.4 1.4-1.3 2.5l-8.1 10.2c-1.8 2.2-5.2 2.6-7.8 0.9-2.3-1.5-3.2-4.5-2.1-6.8z"/>
			<path id="path152" class="s27" d="m2585.6 680.1c-0.1 0.9-0.2 1.8-0.4 2.6-0.5 2.7-2.2 4.9-3.5 7.2-1.2 2.1-5.2 9.6-5.2 9.6q-0.4 0.6-0.9 1.1-0.5 0.5-1.1 0.9c-0.9 0.5-1.9 0.7-2.9 0.7-0.8-0.1-6.3-3.9-5.2-8.8l-3.8-0.8-3.7-3.8-0.5 5.3 1.7 1.8c0.3 0.3 0.6 0.6 1 0.9q0.4 0.5 0.9 0.9 1 1 1.9 2 1.8 2.1 3.4 4.2c2.2 3 4.2 6.1 5.8 9.3q1.3 2.4 2.3 5c0.7 1.7 1.3 3.4 1.8 5.2 1 3.6 1.7 7.3 2.1 11.1 2.9-10.1 0.1-18.4-0.3-19.4 2 0.3 5.2-0.1 7-2-0.4 2.4 1 4.8 2.1 5.6 6.4 4.4 11.3-2.5 15.2-8.7-2.7 2.9-7.4 9.1-11.8 8.2-4-0.8-4.3-4.7-0.7-11.7 1-1.9 2.4-3.7 3.6-5.6 1.1-1.8 2.2-3.5 2.7-5.6 0.4-1.6 0.6-3.5 0.5-5.1-0.7 1.7-1.1 3.6-2 5.3-0.9 1.8-2.3 3.2-3.5 4.8q-2 2.5-3.8 5.1c-1.3 1.7-2.4 3.8-3.9 5.3-1.7 1.6-4.3 1.9-6.3 0.8-1.4-0.8-2.5-2.2-2.8-3.8-0.2-0.9-0.3-1.9 0-2.8 0.2-0.8 1-1.2 1.7-1.9 2.1-1.9 2.9-4.6 4.2-7.1 1.4-2.7 3.4-5.6 4.5-8.5 1.2-3.5 0.8-6.9 0.6-10.7-0.4 1-0.6 2.2-0.7 3.4z"/>
			<path id="path154" class="s28" d="m2574.6 698.7l-14 3.8-160.5-637.4c-1.4-6.5 12.1-9.6 14.1-3.8z"/>
			<path id="path156" class="s26" d="m2561 769.4l-19.6-46.8c-1.1-2.9-1.6-5.9-1.3-9l1.6-33q0-0.9 0.2-1.8l3.6-12.9-1.2-8.6c-0.2-1.5 1-2.8 2.5-2.8 4.2 0.2 11.8 3.5 10.9 25.9 1.9 7 1.1 13.3 1.1 13.3 0 0 19.6 10.4 20.5 40.8-8.1 18.8-18.3 34.9-18.3 34.9z"/>
			<path id="path158" class="s27" d="m2576.5 706.8c2.4-4 4.6-3.7 6.3-2.7 1.4 0.8 2.1 2.9-0.1 6.5 0.8-2.9 0.9-4.9-0.9-5.7-2.8-1.2-5.3 1.9-5.3 1.9z"/>
			<path id="path160" class="s27" d="m2589.8 712.6c2.6-2.8 4.3-2.2 5.5-1.1 1 0.8 1.3 2.7-1.1 5.2 1.1-2.2 1.5-3.8 0.2-4.8-2.1-1.4-4.6 0.7-4.6 0.7z"/>
			<path id="path162" class="s26" d="m2560.2 665.6l-0.4-7.6c-0.3-4.4 3.5-8 7.9-7.3l1.7 0.2c3.9 0.5 6.5 4.2 5.9 8l-1.2 7.4c-0.6 4-4.5 6.7-8.5 5.8-3-0.7-5.2-3.4-5.4-6.5z"/>
			<path id="path164" class="s27" d="m2562.7 667.1c0.6-5.1 3.1-5.9 5.3-5.8 1.9 0.1 3.7 1.8 3.1 6.4-0.6-3.2-1.4-5.2-3.8-5.1-3.4 0.2-4.6 4.5-4.6 4.5z"/>
			<path id="path166" class="s26" d="m2570.5 680.6l0.8-16.2c0.4-4.4 4.3-7.6 8.7-7.2 4.4 0.4 7.7 4.3 7.3 8.7l-1.5 16.9c-0.1 1.1-0.5 2.3-1 3.3l-7.1 14c-1.6 3-5.3 4.3-8.4 2.9-2.9-1.3-3.4-4.1-2.5-7.2z"/>
			<path id="path168" class="s27" d="m2567.9 696.8c2.5-4.4 4.9-4.1 6.8-3.1 1.5 0.9 2.4 3.1 0 7.1 0.8-3.2 0.9-5.3-1.1-6.2-3-1.3-5.7 2.2-5.7 2.2z"/>
			<path id="path170" class="s27" d="m2567.9 672.2l0.6 2.1c2-0.7 3.4-2.3 4-4.6l0.7-2.4c-0.7 2.6-2.8 4.4-5.3 4.9z"/>
			<path id="path172" class="s25" d="m2607.1 766.9c-13.3 9.3-31.4 13.9-47.7 13.9l3.6 19.2c16.3 4 41.4-5.3 52.2-14.4z"/>
			<path id="path174" class="s27" d="m2546 665.6c2.8-0.9 3.4-3.9 1.8-7.9 0.5 2 0.5 6.1-1.9 6.9z"/>
			<path id="path176" class="s8" d="m2421.5 930.1l11.7-6.6c0 0 11-13.3 16.1-12.7 5.2 0.7 20.1 8.9 20.1 8.9 0 0 14.5 0.8 16.7 6 3.3-0.5 8.6 1.4 10 5.1 2.6 7.2 6.6 18.8 5 20.7-0.7 0.9-2.8 2.3-4.4 1.8-0.7 1.8-8.2 6.9-14.2-3.9-7.2 4.8-17-9.2-23.5-18.1-6.5-1.6-11.2-4.2-12.8-6.7-9.4-2.5-24.7 5.5-24.7 5.5z"/>
			<path id="path178" class="s9" d="m2474.3 943.1c-1.7-5.9 2.7-5.8 3.8-4.2-1.2-3-3.7-2.1-4.5-0.8-1.4 2.1 0.7 5 0.7 5z"/>
			<path id="path180" class="s9" d="m2490.5 951.3c-2.6-5.5 1.7-6.1 3-4.8-1.7-2.7-4-1.4-4.6 0-1 2.3 1.6 4.8 1.6 4.8z"/>
			<path id="path182" class="s9" d="m2470.6 921.2c0 0 8 10.2 11.5 23.5-5.3-11-11.5-23.5-11.5-23.5z"/>
			<path id="path184" class="s9" d="m2487.3 928.1c0 0 7.1 10.9 9.3 24.5-4.2-11.5-9.3-24.5-9.3-24.5z"/>
			<path id="path186" class="s29" d="m1929 967.9c44.2 31.4 44.1 55.6 44.1 55.6l80.4 91.4c0 0-55.6 31.6-64.7 28.3-9-3.3-156.1-18.2-156.1-18.2l-11.5-193.5z"/>
			<path id="path188" class="s30" d="m1932.3 968.3c0 0-30.6 0.6-43.5 13.9-12.9 13.3-28.1 39.2-34.9 53.6-6.7 14.4-36.9 87.2-58.5 94.8-21.7 7.6-45 13.2-50.9 16.5-5.9 3.3-37.6 19.9-55 21.7-17.5 1.9-36.6 6.9-53.8 3.9-17.3-3-32.2-7.3-49.2-4.9-17 2.4-25.9-0.9-27.6 0.3-1.7 1.3 3.6 13.2 17.7 12.2 14.1-0.9 21.7 4.1 22.3 4.9-4.7 3.5-22.3 7.3-31.6 7-7.2-0.2-26.8-0.1-35.6 0-3.3 0-5.2 3.8-3.3 6.4 0.8 1 1.8 2 3.3 3.1-3.6 0.7-5.1 4.3 1.7 8.5 1.3 0.8 5.7 2.9 5.7 2.9-4.8-0.1-4.7 4.3-0.7 5.8 3.2 1.2 21.8 8.2 21.8 8.2h17.9l-11 7.8c0 0-10.3 3-11.2 5-0.8 2 4 5.4 13.8 3.4 9.7-2 29.5-13 29.5-13 0 0 23.3-5.2 27.8-7.8 4.4-2.7 11.7-12.4 16.7-13.2 5-0.7 100.8 5.3 148.2-10.2 10.2-3 77.7-22.8 117-74.8z"/>
			<path id="path190" class="s31" d="m1531.7 1201.7l23.3 1.3 24.4-0.1-24.2 2.9z"/>
			<path id="path192" class="s31" d="m1539.1 1213.1l16.2 1.3 25.7 1.4-18.8 2.3z"/>
			<path id="path194" class="s31" d="m1623 1201.2c-15.1 0.7-19.3 10.9-23.3 16.8 5.7-7.5 23.3-16.8 23.3-16.8z"/>
			<path id="path196" class="s31" d="m1807.5 1129.4c-2.4 10.6-5.2 19.2-19.3 26.1 11.6-12.2 19.3-26.1 19.3-26.1z"/>
			<path id="path198" class="s0" d="m1864.5 989.7c-20.7 20.5-46.4 76.9-46.4 76.9l7.4 24.1 88.2 28.6 30.9 6.2 0.9-180z"/>
			<path id="path200" class="s0" d="m1896.6 1129.4l-71.6-36.4-11.5-30.9 80 45.8z"/>
			<path id="path202" class="s32" d="m1895.1 1128.6l-12-83.1-1 76.5z"/>
			<path id="path204" class="s33" d="m2103.9 963.6l6.8-21.5c0.6-2 1.5-4 2.8-5.8l9.2-13.4c0 0 6.4-8.8 8.4-12.4 2-3.5 1.2-8.8 3.6-10.2 5.3-3.3 13.2 6.9 8.2 20.5-4.9 13.7-5.3 17.3-5.3 17.3z"/>
			<path id="path206" class="s33" d="m2133.3 934.2l13.2-3.4c0 0 14.4-10.1 19.3-8.1 4.9 2 17.3 14.1 17.3 14.1 0 0 13.9 4.6 14.7 10.3 3.4 0.4 8.1 3.7 8.5 7.7 0.6 7.7 1.3 20.2-0.7 21.7-1 0.6-3.3 1.5-4.8 0.6-1.1 1.5-6.6 3.3-11.7-3.3-8.3 2.8-20.6 10.8-27.6 12.2-7 1.4-18.4 6.1-27 1.1-8.6-4.9-24.5-17.7-24.5-17.7z"/>
			<path id="path208" class="s9" d="m2159 935.3c1.1 3.3 6.7 8.1 10.7 10 2.1 5.1 6.9 17.4 10.6 21.5 2.7 3 7.6 2.6 7.6 2.6l1.2 4.4-2.3-3.2c-8.1 2.4-12.8-9.6-19.8-24.2-2.7-2.2-7.1-5.3-8-11.1z"/>
			<path id="path210" class="s34" d="m804.6 1177.1q-3.8 0.9-7.7 1.8c-17.5 4.1-37.3 0.1-55.3-0.8-17.9-0.9-51.3-16-57.5-19-6.2-3-30.4-7.4-53-13.9-22.6-6.5-57.7-79.3-65.4-93.6-7.8-14.4-24.8-40-38.8-52.8-14-12.9-45.3-11.8-45.3-11.8l32 156.7c43.2 50.9 114.4 68.9 125 71.3 49.4 13.1 147.1 1.4 152.2 1.9 3.9 0.4 9.3 5.7 13.8 9.5z"/>
			<path id="path212" class="s35" d="m861.9 1160.1l174.2-25.2c0 0 25.1-34.7-25.5-63-14.7-8.6-77.1-50.2-100.4-64.1z"/>
			<path id="path214" class="s36" d="m544.3 1003.6c20.7 26.5 56.7 101.2 56.7 101.2l-73.9 80.1-33-18.5-23.8-8.7-1.7-191.3z"/>
			<path id="path216" class="s0" d="m918.7 1024.3c-22.7 38.6-32.6 143.9-32.6 143.9l-104.8 48.4c0 0 43.4 69.6 20.2 120 0 0 117.4-71.5 129.8-81.5 12.4-10 47.5-109.5 47.5-109.5l52.3-134.2-21.5-43.2c-34.6 16.8-69.5 19.8-90.9 56.1z"/>
			<path id="path218" class="s2" d="m1116.5 535.4l-3.5-12.5-3-10.7-13.9-50.3c-165.8-34.6-357.1-33.3-528.6-2.8l4.2 53.3 0.6 6.9 1.1 14.8c176.3-30.7 371.8-32.4 543.1 1.3z"/>
			<path id="path220" class="s2" d="m1189.4 798.3l-1.6-5.8-4-14.2c-183.6-48.5-411.6-42.5-589.6 16.8l0.7 8.7 5.5 69.5c181.9-62.3 417.9-68.1 605.3-16.4z"/>
			<path id="path222" class="s37" d="m1138.9 616.3l-7.2-26-5.9-21.1-9.3-33.8c-171.3-33.7-366.8-32-543.1-1.3l3 37.6 1.4 16.8 2.6 32.7c176.8-40.3 383-43.5 558.5-4.9z"/>
			<path id="path224" class="s37" d="m1183.8 778.3l-10.3-37.4-4.4-15.8-7.7-27.8c-179.6-43.5-396.7-38.9-574.1 10.8l1.4 18 1.6 20.3 3.8 48.3 0.1 0.4c178-59.3 406-65.3 589.6-16.8z"/>
			<path id="path226" class="s3" d="m1161.4 697.3l-3.8-13.8-7.2-25.8-8.7-31.4-2.8-10c-175.5-38.6-381.7-35.4-558.5 4.9l0.7 9.2 2.1 27 2.5 31.2 1.6 19.5c177.4-49.7 394.5-54.3 574.1-10.8z"/>
			<path id="path228" class="s3" d="m661.8 614l-83-1.2 6.8 90.8 143-57z"/>
			<path id="path230" class="s7" d="m726.4 615.8l-140.8 87.8 7.6 84 202.1-108.4z"/>
			<path id="path232" class="s5" d="m860.8 711.1l-66.5-48.9-201.1 125.4 7.2 85.7z"/>
			<path id="path234" class="s37" d="m833 416.2l-4.1-45.6-0.5-5.8c-0.1-1.2-0.2-2.4-0.4-3.6q-1-7-2.2-13.8c-69-57.2-193.7-101.6-545.1-141.5l-18 53.8-5.8 17.2-6.5 19.3c321 26.8 478.9 71.1 584.4 140.4z"/>
			<path id="path236" class="s2" d="m308.6 123.5l-24.9 73.5-1.9 5.5-1.1 3.4c351.4 39.9 476.1 84.3 545.1 141.5-18.2-103.4-67.9-171.8-517.2-223.9z"/>
			<path id="path238" class="s2" d="m852.3 631l-1.3-15.1c-183.9-89.9-435.3-143.8-660.3-141.4l-8.1 24.2-3.2 9.5-23.1 69c237.8-9.3 474 43.1 703.2 133.9l-6.6-74z"/>
			<path id="path240" class="s37" d="m851 615.9l-3.1-34.1-0.7-8.2-4.3-47.1v-0.3c-145-80.6-347.2-128.5-622.5-140.3l-13.1 39.2-7.2 21.3-9.4 28.1c225-2.4 476.4 51.5 660.3 141.4z"/>
			<path id="path242" class="s3" d="m841.8 513.4l-3.8-42.1-2.2-23.9-1-10.8c-105.5-69.3-263.4-113.6-584.4-140.4l-8.7 26-9.7 28.9-11.1 33.3-0.5 1.5c275.3 11.8 477.5 59.7 622.5 140.3z"/>
			<path id="path244" class="s38" d="m141.7 660.8l-17.1-44.6-7.4-14.7c-1.7-3.3-5.6-4.7-9-3.3-3.6 1.4-5.3 5.3-4.1 8.9l4.8 14 6.5 24.6 12.9 10.9z"/>
			<path id="path246" class="s39" d="m120.6 631.5c-2.1 0.8-4.3 0.9-5.9 0.4 1.5 1.4 4 1.8 6.4 0.8 2.4-0.9 4-2.9 4.1-5-0.8 1.6-2.5 3-4.6 3.8z"/>
			<path id="path248" class="s38" d="m80.9 684.2l-1.6 14c-1.2 10-0.2 20 2.8 29.6l5.1 15.5 43.1 15.3 15.9-65.6-15.3-50.4-26.3 15.3z"/>
			<path id="path250" class="s39" d="m136.1 645.2c-2.3 2.2-2.3 11.8-1.8 18-2.2 5.1-5.3 13-5.3 13l-4.2 2.4c0.8 3.3-1.5 5.3-3.5 6.5l-1.7 5.9-7.7 7.9q-0.7 1.7-1.1 3.5-0.8 3.1-1.2 6.3c-0.5 4.2-0.4 5.3 0.5 9.4 0.3-2.6 1.3-5 2.4-8.9 0.6-1.9 1.2-3.8 1.9-5.6q1.2-2.8 2.5-5.5c1.8-3.5 18.2-9 18.5-9.3l4.9-11.2c0 0-0.4-35.9-4.2-32.4z"/>
			<path id="path252" class="s39" d="m96.9 703.6c-3.5 0.9-5.4-1.8-7.5-4-1.7-1.7-3.4-3.4-5.3-4.9 1.1 2.2 2.3 4.2 3.7 6.2 0.8 1.3 1.6 2.7 2.7 3.8 2.2 2.2 6.1 2.6 8.8 1.4l1.3-4.9c-0.7 1.1-2.3 2.1-3.7 2.4z"/>
			<path id="path254" class="s28" d="m97 712c0.5 5.7 10.2 7.5 15.2 4.6l198.3-594.9c2.6-8.3-11.6-14.1-15.1-4.6z"/>
			<path id="path256" class="s38" d="m108.8 674.9l-4.6-18.8c-1.1-4.6-5.7-7.5-10.4-6.5-4.7 1.1-7.6 5.8-6.5 10.5l4.1 17.9c0.3 1.3 0.8 2.4 1.5 3.4l9.8 14c2.1 3.1 6.2 3.9 9.4 1.9 2.9-1.8 4.1-5.5 2.7-8.7z"/>
			<path id="path258" class="s38" d="m96.1 685.6l-4.3-15.4c-1.1-3.8-5.2-5.9-9.3-4.8-4.2 1.2-6.7 5.3-5.7 9.2l3.8 14.7q0.4 1.6 1.4 2.8l8.9 11.1c1.9 2.4 5.6 2.8 8.4 1 2.6-1.7 3.6-4.9 2.3-7.5z"/>
			<path id="path260" class="s39" d="m102.6 695.3c-1.4-1.9-5.3-8.8-6.7-10.6-1.3-1.7-2.4-3.9-3.4-5.8-1-1.8-1.4-3.9-2.2-5.8-0.1 1.8 0.2 3.8 0.6 5.6 0.5 2.3 1.7 4.1 2.9 6.1 1.3 2.1 2.7 4 3.9 6.1 1.1 2 4.2 6.5 4.2 6.5z"/>
			<path id="path262" class="s38" d="m120.8 664.4l-1.9-19.3c-0.5-4.7-4.7-8.2-9.4-7.8-4.8 0.4-8.4 4.6-7.9 9.4l1.6 18.4q0.1 1.9 1 3.6l7.8 15.2c1.7 3.3 5.7 4.7 9 3.2 3.2-1.4 4.8-5 3.9-8.3z"/>
			<path id="path264" class="s39" d="m123.8 679.9c-2.4-5-5-4.9-7.1-3.9-1.7 0.7-2.8 3.1-0.7 7.6-0.6-3.5-0.4-5.8 1.8-6.6 3.4-1.1 6 2.9 6 2.9z"/>
			<path id="path266" class="s39" d="m113.2 691.1c-2.6-4.3-5-3.9-6.8-2.8-1.5 0.8-2.3 3.1 0.1 7-0.9-3.2-1-5.3 1-6.2 3-1.3 5.7 2 5.7 2z"/>
			<path id="path268" class="s39" d="m98.7 697.6c-2.9-3.1-4.7-2.4-6.1-1.3-1 1-1.3 3 1.3 5.7-1.3-2.4-1.7-4.1-0.2-5.2 2.2-1.5 5 0.8 5 0.8z"/>
			<path id="path270" class="s39" d="m107.6 672.8c-1.4-2.4-3.3-4.9-3.8-7.7-0.2-0.9-0.3-1.9-0.4-2.9-0.2-1.3-0.4-2.6-0.8-3.7-0.2 4.1 0 7.8 1.3 11.7 0.9 2.4 8.2 12.9 9.4 15.2l-5.2-11.5q-0.3-0.7-0.5-1.1z"/>
			<path id="path272" class="s38" d="m130.1 759.2l23.2-57.5c1.2-3.1 1.7-6.4 1.5-9.8l-0.8-25.5q-0.1-1-0.3-2l-6.8-17.7-1.1-9.1c0.2-1.5-1-3-2.6-2.9-4.7 0.1-14 6.7-4.3 29.6-2.1 7.6-5.4 16.8-5.4 16.8 0 0-23.4 6.6-23.3 40.2 8.8 20.4 19.9 37.9 19.9 37.9z"/>
			<path id="path274" class="s39" d="m141.6 638.2c-1.3 3.5-2.5 9.3 4.5 8.6-6.5-0.8-4.5-8.6-4.5-8.6z"/>
			<path id="path276" class="s39" d="m116.8 618c-1.7 0.7-3.5 0.7-4.9 0 1.3 1.5 3.4 2 5.4 1.3 1.9-0.8 3.1-2.7 3-4.6-0.6 1.4-1.8 2.6-3.5 3.3z"/>
			<path id="path278" class="s40" d="m322.7 926.3c34.7-4.6 68.5-4.5 101.1 1.5l6.7 3 15.5 32.9-57.6 26.4-46.1 3.7c0 0-24.3-29.2-24.3-29.9 0-0.6-5.9-32.3-5.9-32.3z"/>
			<path id="path280" class="s38" d="m215.3 950.6c-13 0-27.4-6.8-27.4-6.8 0 0-58.6-17.8-80.6-24.4-1.8-15.4 15.1-126 18.7-144.5l5.6-20.7-15.1-8.6-29.3-2.3-6.1 19.8c-48 117.6-55.4 169.3-46.3 202.8 6.7 20.4 116.8 62.9 152.7 83.6 10.8 6.1 19.7 14.2 26.2 32.1l15.1-98.9c0 0 18.1-32.1-13.5-32.1z"/>
			<path id="path282" class="s41" d="m824.2 936c3.2 2.5 7.2 6.1 10.8 9.8 7.7-3.6 19.7-10.1 29.6-16.6-5.3-18.3-13.6-25.3-20.1-37.7-6.7-12.8-0.3-29.4-5.9-49-6.8-23.8-14.8-24-21-48.6-9.8-39.2-44.1-59.1-74.4-44.7 0 0-31.7 0.3-57.1 34.3-41.4 55.4-26.7 159.2-26.7 159.2l19.5 16.6 51.1 8.7 28.3-5.6c36.2-3.3 53.3-7.2 70.6-14-1.7-5.3-3.6-10-4.7-12.4z"/>
			<path id="path284" class="s42" d="m854.1 992.8l-39.9-25.2c-21.1-11.3-39.6-10.3-39.6-41.4v-18.1h-36.6-36.7v18.1c0 31.9-14.3 33.3-33.9 45.2l-53.7 30.3c0 0-17.3 34.2 4.3 89.6 29.9 76.6 198 75.8 227.9-0.8 21.6-55.4 8.2-97.7 8.2-97.7z"/>
			<path id="path286" class="s42" d="m788.5 845.9c5.9-15.2 8.3-15.9 12.8-13.7 5.2 2.6 6.9 20.5 4.6 27.1-2.2 6.6-5.3 22.3-10.6 21.4-5.3-0.8-7.8-13.5-7.8-13.5z"/>
			<path id="path288" class="s43" d="m695.8 886.6c0-28.6 17.4-52.2 42-52.2 24.6 0 42.6 24.9 42.6 53.5 0 28.6-23.9 54.9-42.4 54.9-15.6 0-42.2-27.6-42.2-56.2z"/>
			<path id="path290" class="s42" d="m738.8 769.6c-32 0-64 29-64 62.6l6 36.3c0 27.1 34.8 67.5 58 67.5 23.1 0 57.8-37.6 57.9-67.5v-38.1c0-33.6-26-60.8-57.9-60.8z"/>
			<path id="path292" class="s41" d="m765.9 753c-39.5-34.1-97.7 0.1-105.7 40.9-5.3 26.7-16.9 24.1-28.7 42.1-9.9 15.3-4.7 28.3-12.3 40.6-7.4 11.9-20.8 16.1-26.3 42.5 6.5 6.6 13.7 12.2 21.3 17 5.1-7.4 12.5-15.7 19.5-20.4-2.9 4.4-8.4 14.8-11.4 25.1 24 12.9 45.8 16.4 56.6 18.5-3.6-4.5-14.2-35.7-4.1-49.6 12.2-16.7 12.3-36.2 6.7-49.6-7.7-18.1 3.2-42.4 21.7-47.3 24.9-6.7 53.8-4.2 69.4-24.2 6.9-8.8-6.7-35.6-6.7-35.6z"/>
			<path id="path294" class="s41" d="m769.7 785.1c10.5 7.3 24.6 28.5 24.3 56.9 23.2-54.3-22.9-74.9-51.5-77.2-28.5-2.2 6 17.5 27.2 20.3z"/>
			<path id="path296" class="s44" d="m703.2 851.2c-3.8-6.1 2.7-12.5 8.8-8.7 0.5 0.3 1 0.7 1.3 1.2 3.7 6.2-2.7 12.6-8.8 8.8-0.5-0.3-1-0.7-1.3-1.3z"/>
			<path id="path298" class="s44" d="m701.4 840.7l-6.2-2.9 1.3 3.9-7.9-2.1 3.3 5c1.6 2.8 4.4 2.1 6.3 1.6 3.1-0.8 6.7-2.1 10.4-2.1 4.9 0 9.3 1.6 13.1 3.1-7.7-9.9-15.2-9.4-20.3-6.5z"/>
			<path id="path300" class="s44" d="m773.5 851.2c3.7-6.1-2.7-12.5-8.8-8.7-0.5 0.3-1 0.7-1.3 1.2-3.8 6.2 2.6 12.6 8.8 8.8 0.5-0.3 0.9-0.7 1.3-1.3z"/>
			<path id="path302" class="s44" d="m775.2 840.7l6.2-2.9-1.2 3.9 7.9-2.1-3.3 5c-1.6 2.8-4.5 2.1-6.3 1.6-3.1-0.8-6.7-2.1-10.4-2.1-4.9 0-9.4 1.6-13.1 3.1 7.7-9.9 15.2-9.4 20.2-6.5z"/>
			<path id="path304" class="s45" d="m610.4 1419.4l10.3 209.6h100.3l9.4-214.3z"/>
			<path id="path306" class="s45" d="m862.4 1407.1l21.2 221.9h-99.7l-43.6-201.9z"/>
			<path id="path308" class="s46" d="m617.3 1002.1c-13.9 12.8-30.9 38.3-38.6 52.6-7.8 14.4-42.8 86.9-65.3 93.4-22.5 6.5-46.7 10.9-52.8 13.9-6.2 3-39.5 18.1-57.4 19-13.8 0.7-28.6 3.2-42.7 2.5v36.5c23.3 1.7 102.6 9.1 145.4-2.3 10.6-2.4 74-28.7 117-79.5l39.6-147.8c0 0-31.2-1.1-45.2 11.7z"/>
			<path id="path310" class="s47" d="m525.8 1147.6c-3 10.6-6.3 19.3-21.1 25.4 12.5-11.7 21.1-25.4 21.1-25.4z"/>
			<path id="path312" class="s35" d="m910.2 1007.8c-44.5-29.8-65-38.5-101.1-45.9-7.7 17.3-41.2 48.3-69.5 48.3-28.3 0-54.1-24.2-69-45.9 0 0-19.8 8.5-39.1 21-8.4 5.4-16.6 11.6-23.2 18.2-7.4 7.2-15.4 17.2-23.7 28.6-20.9 28.7-56.1 107.8-66.3 125.2-55.5 16.9-146.3 4.7-161.6 20.1 0 0-14.9 10.3 2.7 35.6 54.9 17 133.7 40.1 177.7 34.5 9.4-1.1 41.4-17.1 64.7-35.4-2.3 92.4-31.3 156.3-3.2 218.4 0 0 147.7 34.5 280.5-4.1 15.5-41.6 2-139.6-6.5-215.2l-3.1-42.5z"/>
			<path id="path314" class="s48" d="m875.6 1453.6c-93.2 12.4-180.8 12.2-274 0.4l-3-23.5c93.1 9.7 187.2 10.3 280.4-4.2z"/>
			<path id="path316" class="s49" d="m361.9 1232l-19.7-0.1c-5.8-22.2-6.9-31.9-5.1-54.8l19.7-3.7c-1.6 19.6 0.2 39.5 5.1 58.6z"/>
			<path id="path318" class="s50" d="m610.3 1121.5l-25.5 102.7c2.3-1.2 17-11.9 17-11.9z"/>
			<path id="path320" class="s50" d="m864.6 1103.8l17.7 53.4c-8.8 2.3-12.4 8.9-12.5 18.5z"/>
			<path id="path322" class="s48" d="m793.3 955.6l-0.6 1.8c-3.6 11.2-16.1 37.1-53 37.1-37 0-50.1-26.3-53.7-37.4l-15.9 6.8c3.1 9.2 9.1 21.5 21.5 32 12.9 10.8 29 16.3 48.1 16.3 19 0 35.2-5.5 48-16.3 12.5-10.6 19.3-25.7 22.3-34.8z"/>
			<path id="path324" class="s51" d="m738.9 899.7c-4.4 0-21 0-21 0 4.4 6 6.2 17.2 21 17.2 15.3 0 17.5-13.8 20.9-17.2 0 0-16.4 0-20.9 0z"/>
			<path id="path326" class="s52" d="m738.9 899.1c-4.7 0-21 0.6-21 0.6 0 0 7.2 10.9 21.3 10.9 14.2 0 20.6-10.9 20.6-10.9 0 0-16.1-0.6-20.9-0.6z"/>
			<path id="path328" class="s53" d="m738.9 899.1c-4.2 0-19.3 0.8-19.3 0.8 0 0 3.3 3.7 7.8 6 3.2 1 7.1 1.8 11.8 1.8 4.1 0 7.5-0.6 10.4-1.4 5-2.3 8-6.3 8-6.3 0 0-14.5-0.9-18.7-0.9z"/>
			<path id="path330" class="s54" d="m723.5 903.4c4.5 0.6 10.9 1.3 15.4 1.3 4.7 0 10.8-0.7 15.3-1.3 2.2-1.8 3.4-3.4 3.4-3.4 0 0-14.5-0.9-18.7-0.9-3.7 0-16.4 0.6-19.3 0.8 0 0 1.5 1.7 3.9 3.5z"/>
			<path id="path332" class="s55" d="m738.9 897.3c-10-0.1-21 2.4-21 2.4 0 0 13.2 2.6 21 2.6 7.9 0 20.9-2.6 20.9-2.6 0 0-10-2.3-20.9-2.4z"/>
			<path id="path334" class="s56" d="m721.5 830.7c-1.4-1.2-7.3-3.6-19.2-3.3-5.4 0.1-12.3 6-14.5 8.1 3.8-1.1 10.8-4.4 25.7-1 11.8 2.8 10.6-1.4 8-3.8z"/>
			<path id="path336" class="s56" d="m756 830.7c1.4-1.2 7.3-3.6 19.2-3.3 5.4 0.1 12.3 6 14.5 8.1-3.7-1.1-10.8-4.4-25.7-1-11.8 2.8-10.6-1.4-8-3.8z"/>
			<path id="path338" class="s57" d="m724.7 884c-1.5-2.1-1-4.7 0.8-6.7 11.3-13 13.5-22.8 12.2-35.2 2.1 4.4 3 15.7 1.4 20.7-1.7 5.3-4.2 10.5-10.3 17.4-0.7 0.8-0.5 1.2-0.3 1.6 1.5 2.5 7.8 5.9 18.6 5.7-3.4 1.2-17 4.2-22.4-3.5z"/>
			<path id="path340" class="s0" d="m1229.4 1013.4c27.9 40.2 10.9 112.7 21.9 189.7 3.8 26.9 13.6 64.1 22.8 125.1-12.4-39.4-61.2-22.1-76.2 56.5l-25.3-160.6-33-214.8c0 0 39.3-30.8 54.4-24.5 3.1 1.3 6.2 2.3 9.7 3.4 11.3 6.7 19.1 15.8 25.7 25.2z"/>
			<path id="path342" class="s0" d="m960.5 1107.2c10 90.8-11.5 117.5 16.3 145.6 24.6 24.9 64.5 62.4 100 57.4 35.5 5 85.8-32.8 111.3-57 25.4-24.2 0.7-60.2 1.7-99.7 1.3-47.9-6.7-174.3-6.7-174.3-4.2 24.8-80.2 35.3-109.1 35.3-28.9 0-101.4-4-105.6-28.8 0 0-20.8 4.7-40.6 33.6z"/>
			<path id="path344" class="s58" d="m1022.9 1629c25.6-61.7 51.2-158.8 51.2-158.8l8.5 158.8h121.3c0 0 22.2-105.9 20.4-179.5-2.2-88.1-5.6-108-26.5-170.4l-115.4 2.5-111.5-3.6c-47.9 97.4-71.2 351-71.2 351z"/>
			<path id="path346" class="s59" d="m968.4 1283c34.4 9.4 74.5 13.8 110.2 13.8 35.5 0 86.8-4.1 121-13.4-0.8-2.8-1.9-7.3-2.7-10.2l-115.1 4.4-3.7 0.2-107.1-3.6z"/>
			<path id="path348" class="s58" d="m1197.1 1273.2c-67.8 18.6-158.4 19.6-226.2 1.1q2.9-10.8 5.9-21.5c63.9 17.5 151.3 16.4 215.3-1.1 1.9 7.2 3.4 14.4 5 21.5z"/>
			<path id="path350" class="s59" d="m1082.4 1265.4h-8.3v189.2l8.3-36.3z"/>
			<path id="path352" class="s59" d="m1078.1 1419.3v-6.5c7.9 0 14.4-6.4 14.4-14.3v-103.2h6.5v103.2c0 11.5-9.4 20.8-20.9 20.8z"/>
			<path id="path354" class="s59" d="m949.7 1334.8q-1.3 4.4-2.5 8.7c27.1 0.4 52.8-22.7 59.7-55.5l-8.5-1.8c-5.8 27.7-26.6 47.6-48.7 48.6z"/>
			<path id="path356" class="s59" d="m1214.5 1335.9l1.9 8.8c-27.1-0.3-55.9-23.1-62.1-56.1l8.6-1.6c5.2 27.9 29.5 47.4 51.6 48.9z"/>
			<path id="path358" class="s60" d="m1091.4 1276.6c0-2.7 2.2-4.9 4.9-4.9 2.7 0 4.9 2.2 4.9 4.9 0 2.8-2.2 5-4.9 5-2.7 0-4.9-2.2-4.9-5z"/>
			<path id="path360" class="s61" d="m1023.5 1290.4l-8.3-1.2 4.3-29.8 8.2 1.2z"/>
			<path id="path362" class="s61" d="m1141.9 1290.4l8.2-1.2-4.3-29-8.3 1.3z"/>
			<path id="path364" class="s62" d="m962.6 1189.9l4.3-59.1-24.3-76.4 15.1 76.9-4.3 81z"/>
			<path id="path366" class="s63" d="m1210 1071.5l-22.2 67.9c0 0 3.2 24.3 5.5 41.2 3 22.5 11.1 51.8-1.2 71.1 19.1-26.3 16-46.2 9.8-84-2.7-15.9-3.7-29.8-3.7-29.8z"/>
			<path id="path368" class="s64" d="m1146.3 969.1c-45.1-14-29.8-40.2-30.4-88.8l-42.1 18.4-42.1-18.4c-0.6 48.6 14.3 72.8-30.3 88.8l-24.4 9.6-11.5 4.4c0 0 64.9 33.8 108.1 31.2h0.2 0.2c43.2 2.6 113.8-31.6 113.8-31.6z"/>
			<path id="path370" class="s65" d="m1159.9 791c0.3-3.8-1.7-7.3-4.7-9.1 1.9-2.2 2.9-5.2 2.4-8.3-0.3-2.1-1.3-4-2.7-5.4 1.5-3.1 1.2-7-0.9-10-1.7-2.4-4.2-3.8-6.9-4.1 1-3 0.6-6.3-1.3-9-1.8-2.6-4.6-4.1-7.5-4.2 1-4.3-1-9-5.1-11.2-2.8-1.4-5.9-1.4-8.5-0.1-0.7-2.7-2.5-5.1-5.1-6.5-2.8-1.4-6-1.4-8.7-0.1-1.1-3.6-4.2-6.3-8.1-6.8-2.6-0.4-5 0.4-6.9 1.8-1.4-3.2-4.3-5.6-7.9-6.1-3.3-0.4-6.4 0.9-8.5 3.3-1.9-2.9-5.2-4.7-8.9-4.4-3.1 0.3-5.8 2-7.4 4.5-1.9-2-4.7-3.2-7.7-2.9-4.3 0.4-7.6 3.4-8.7 7.4-2.3-1.2-5.1-1.5-7.8-0.6-2.7 1-4.7 3.1-5.8 5.7-3.5-2.7-8.5-2.7-12 0.2-2.7 2.3-3.9 5.6-3.5 8.8-3.7-0.6-7.6 1.1-9.7 4.5-1.8 2.9-2 6.4-0.7 9.4-2.5 0.5-4.8 2-6.3 4.4-1.7 2.7-1.9 5.8-1 8.5-4.2 0.4-7.9 3.5-8.8 7.9-0.7 3.5 0.4 6.8 2.6 9.1-2.9 1.9-4.7 5.2-4.6 9 0.2 3 1.6 5.6 3.8 7.3-2.3 2-3.7 4.9-3.6 8.2 0.2 3.1 1.7 5.8 4 7.5-2.6 2.2-4 5.7-3.3 9.4q0.2 1.5 0.9 2.8c1.6 3.3 2.9 6.8 2.9 10.4q0 0.9 0.1 1.8c0.7 3.8 3.3 6.6 6.6 7.8-0.8 1.7-1.1 3.8-0.8 5.8 0.8 4.8 4.9 8.3 9.6 8.3 0.9 3.3 1.5 5.3 1.5 5.3l6.7 0.1q-0.1 0.4-0.1 0.7c-0.1 5.6 4.2 10.1 9.6 10.2 3.8 0.1 7-2 8.7-5 1.7 1.7 4.1 2.7 6.6 2.8 2.9 0 5.6-1.2 7.4-3.3 1.7 2.5 4.6 4.2 7.8 4.2 3.2 0.1 6-1.4 7.8-3.7 1.8 2.2 4.5 3.7 7.6 3.7 3.1 0 5.9-1.5 7.7-3.9 1.8 2.3 4.6 3.6 7.6 3.6 2.8 0 5.4-1.3 7.2-3.3 1.8 2.6 4.7 4.2 8 4.2 3.2 0 6-1.6 7.8-4.1 1.8 2.2 4.5 3.5 7.4 3.5 3.1-0.1 5.8-1.5 7.6-3.8 2.1 2.6 5.4 4 9 3.5 4-0.6 7.3-3.8 8.2-7.8 0.3-1.8 0.2-3.5-0.3-5 2.5-1.3 4.4-3.7 5-6.8 0.4-1.9 0.2-3.9-0.4-5.6 2.7-1.3 4.9-3.8 5.6-7 0.5-2.8-0.1-5.4-1.4-7.6 3.2-1.2 5.7-4.1 6.3-7.8 0.6-3.6-0.8-7.1-3.4-9.2 2.2-1.8 3.7-4.4 3.9-7.4 0.1-3.1-1.1-5.9-3.1-7.9 2.4-1.7 4.1-4.4 4.2-7.6z"/>
			<path id="path372" class="s64" d="m1130 838.9c6.2-16.8 8.6-17.5 13.4-15.1 5.5 2.9 7.3 22.7 5 30.1-2.3 7.3-5.1 24.8-10.6 23.8-5.6-0.9-8.8-15.2-8.8-15.2z"/>
			<path id="path374" class="s64" d="m1019 838.9c-6.1-16.8-8.5-17.5-13.2-15.1-5.5 2.9-7.4 22.7-5.1 30.1 2.4 7.4 4.7 24.8 10.2 23.8 5.6-0.9 9.1-15.2 9.1-15.2z"/>
			<path id="path376" class="s66" d="m1074 772.7c-28.1 0-50.9 27.9-50.9 62.4v39.1c0 16.9 5.5 32.3 14.5 43.5 9.2 11.6 17.1 27.5 36.4 27.5 19.3 0 27.3-15.9 36.5-27.5 8.9-11.2 14.4-26.6 14.4-43.5v-39.1c0-34.5-22.8-62.4-50.9-62.4z"/>
			<path id="path378" class="s64" d="m1074 764.9c-34.4 0-62.3 27.9-62.3 62.3v39.1c0 17 6.7 32.3 17.7 43.5 11.3 11.7 27.1 28.3 44.6 28.3 17.5 0 33.4-16.6 44.7-28.3 10.9-11.2 17.7-26.6 17.7-43.5v-39.1c0-34.4-27.9-62.3-62.4-62.3z"/>
			<path id="path380" class="s67" d="m1042.7 824.4c6.2 0.4 11.9 2.3 16.3 5.3-3.7-6.8-9.8-11.5-17.1-11.9-8.1-0.5-15.6 4.5-20 12.3 5.3-4 12.7-6.2 20.8-5.7z"/>
			<path id="path382" class="s67" d="m1107.2 824.3c-6.2 0.4-11.8 2.4-16.2 5.4 3.6-6.9 9.7-11.6 16.9-12.1 8.2-0.5 15.7 4.4 20.1 12.2-5.3-3.9-12.7-6.1-20.8-5.5z"/>
			<path id="path384" class="s68" d="m1036.3 842.5c-0.1-3.6 2.9-6.6 6.5-6.6 3.7 0 6.6 2.9 6.7 6.5 0 3.7-3 6.6-6.6 6.7-3.7 0-6.6-3-6.6-6.6z"/>
			<path id="path386" class="s68" d="m1035.3 835l-6.7-3.1 1.7 5.1-8.8-3.1 4.8 5.4c1.4 1.6 3.5 2.1 5.6 1.6 3.3-0.9 7-1.4 10.9-1.4 5.3-0.1 10.2 0.8 14.2 2.3-8.3-10.5-16.3-10-21.7-6.8z"/>
			<path id="path388" class="s68" d="m1112.5 842.2c0-3.6-3-6.5-6.6-6.5-3.6 0-6.6 3-6.6 6.6 0 3.6 3 6.6 6.7 6.6 3.6-0.1 6.5-3 6.5-6.7z"/>
			<path id="path390" class="s68" d="m1113.5 834.7l6.6-3.1-1.7 5.1 8.8-3.2-4.7 5.4c-1.4 1.6-3.6 2.2-5.7 1.7-3.3-0.9-7-1.4-10.9-1.3-5.2 0-10.1 0.9-14.2 2.4 8.3-10.6 16.3-10.1 21.8-7z"/>
			<path id="path392" class="s66" d="m1075.1 884.5c-8.9 2.2-13.8-0.1-15.9-3.7-3.9-6.5 1.4-11.5 5.8-15.5 3.3-3.1 6.8-6.2 7.5-10.6 1-6.6-0.6-12-1.8-16q-0.5-1.4-0.7-2.6c1.6 2.3 7.9 9.9 6.9 19.3-0.7 5.9-5.2 9.8-8.9 13.2-4.8 4.4-6.5 6.3-4.6 9.5 4.2 6.9 14.5 4.1 15.9 3.8-0.7 1.2-3.2 2.3-4.2 2.6z"/>
			<path id="path394" class="s65" d="m1077.9 763.3q-1.2 0-2.4 0.1-1.2-0.1-2.4-0.1c-29.3 0.2-80.5 12.7-61.5 81.7 7.4-43.5 18.3-69.7 63.9-69.7 45.6 0 55.5 21.9 62.3 68 17-67.3-30.5-79.8-59.9-80z"/>
			<path id="path396" class="s69" d="m1074.7 894.9c-5.7 0-26.5 1.9-26.5 1.9 5.7 7.9 7.2 20.5 26.5 20.5 19.8 0 22.6-16.2 27-20.6 0 0-21.3-1.8-27-1.8z"/>
			<path id="path398" class="s70" d="m1074.7 894.2c-6.2 0-27.2 2.4-27.2 2.4 0 0 9.2 12.5 27.6 12.5 18.3 0 26.7-12.5 26.7-12.5 0 0-20.9-2.4-27.1-2.4z"/>
			<path id="path400" class="s71" d="m1074.7 894.2c-5.5 0-23.6 2.6-23.6 2.6 0 0 2.8 3.2 8.7 6.2 4 1.3 9.1 2.4 15.3 2.4 5.2 0 9.7-0.8 13.4-1.9 6.5-3 9.7-6.7 9.7-6.7 0 0-18.1-2.6-23.5-2.6z"/>
			<path id="path402" class="s54" d="m1054.5 899.7c5.8 0.8 14.2 1.7 20.2 1.7 6 0 14.3-0.9 20.2-1.7 2.2-1.6 3.3-2.9 3.3-2.9 0 0-18.1-2.6-23.5-2.6-5.5 0-23.6 2.6-23.6 2.6 0 0 1.1 1.3 3.4 2.9z"/>
			<path id="path404" class="s72" d="m1074.7 893.1c-11.7 0-27.2 3.5-27.2 3.5 0 0 17 2.5 27.2 2.5 10.2 0 27.1-2.5 27.1-2.5 0 0-15.4-3.5-27.1-3.5z"/>
			<path id="path406" class="s73" d="m1071.6 1027.7c-44.9 0-88.1-13.1-120.4-35.8l24.1-15.7c55.9 39.2 135.9 34.6 198.7-1.4l28.5 12.7c-34.3 24.1-78.8 39-124.9 40.1q-3 0.1-6 0.1z"/>
			<path id="path408" class="s38" d="m493.8 981.9l-119 42.7-86.2-74 34.3-15c4.7-1.8 7.5-7.6 7.5-12.9v-54.4h85.1v52.7c0 5.4 2.6 11 7.3 13.7z"/>
			<path id="path410" class="s0" d="m224.6 1365.7l8.4 263.3h134.1l14.7-223.7z"/>
			<path id="path412" class="s0" d="m513.6 1397l56.1 232h-139.2l-80.6-231.5z"/>
			<path id="path414" class="s36" d="m537.2 1075.2c0 0 11.9-66.8 7.1-71.6-23-22.7-74-44.2-86.1-49.1-9.3-3.7-19.5-7.7-19.5-7.7-4.4 13.3-19.4 41.4-63.6 41.4-44.1 0-62.5-33.8-66.8-47.2l-20.7 3.1-37.4-6.9-54.1 117.6 22.1 151.8-8.3 192.7c108.2 41.3 330.8 36.9 330.8 36.9-16.2-89.8-29.6-180.2-29.6-180.2z"/>
			<path id="path416" class="s36" d="m507 1250.4c0 0 19.7 28.3 20.1 34.4 0.4 6-11.7 32.9-11.7 32.9z"/>
			<path id="path418" class="s74" d="m511.2 1256.6l-23.8-42.4 25.4 29.8z"/>
			<path id="path420" class="s38" d="m372.4 733.7c-35.4 0-65.4 29-65.4 64.5l1 48.6c0 15.4 5.7 42.2 16 54.2 18.5 21.4 24.2 29.9 48.4 29.9 24.2 0 32.2-6.8 48.5-29.9 16.3-23.2 15.7-26.4 15.7-41.9l4.8-60.6c0-35.5-33.5-64.8-69-64.8z"/>
			<path id="path422" class="s38" d="m313.1 826.9c-7.9-18.4-11.7-19.1-16.8-15.7-6.6 4.3-7 24.9-4 32.9 3.1 8.1 7.6 27.1 14.1 25.8 6.4-1.2 8.9-17 8.9-17z"/>
			<path id="path424" class="s38" d="m432.1 826.9c7.9-18.4 10.8-19 16.2-16.1 6.3 3.3 7.6 25.3 4.5 33.3-3 8.1-7.6 27.1-14 25.8-6.5-1.2-9-17-9-17z"/>
			<path id="path426" class="s75" d="m436.4 837.7c-2.5 20.8-3.8 40.5-23.1 50.2-5.8-15.6-15.8-7.2-40.3-7.2-24.4 0-34.4-8.4-40.2 7.2-19.3-9.7-21.2-29.4-23.8-50.2h-3.6c0.3 6.8 0.9 46.3 5 60.1 4 13.8 38.4 42.2 62.6 42.2 24.3 0 58.6-28.4 62.7-42.2 4-13.8 4.7-53.5 5-60.3z"/>
			<path id="path428" class="s75" d="m436.4 838.4l4.2-0.6c5.3-20.6 5.1-29.7 10.6-47.1 6.7-21.2 5.9-42.3-9.6-44.1 13-19.9-71-72.1-134.5-20 7.9 4 10.9 6.8 10.9 6.8 0 0-12 6.3-19.6 24.2-8.1 19.1 1.8 47.2 7 80.1l3.9 1.8c-0.3-15.5-1.6-41.7 5.3-55.3 7.4-14.8 29.3-4.9 57.7-4.8 28.3 0.2 53.3-13.5 59.9 6.1 4.4 13.3 5.1 23.7 4.2 52.9z"/>
			<path id="path430" class="s38" d="m400 885.9c-5.4-3.2-10.3 5.2-28 5.2-17.7 1.2-22.1-6.8-26-5.3 0.4 10.3 0.2 24.7 14.4 29.1 6.6 1.1 7.5-1 7.2-3.8 2.3 0.2 7.5 0.3 10.1-0.4 0.2 2.9 1.2 5.7 7.7 4.1 13.9-5.4 15.5-18.7 14.6-28.9z"/>
			<path id="path432" class="s76" d="m338.4 817.2c7.3-0.1 14.1 1.7 19.5 4.8-0.9-9.5-12.4-12.8-20.9-12.4-19.1 0.9-21 8.7-22.4 16 6.1-6 14.4-8.3 23.8-8.4z"/>
			<path id="path434" class="s77" d="m354.2 831.3c-2.8-2.9-7.4-8-16.6-6.7-4.1 0.7-9.9 3.9-15.1 10.1 0 0 3.9-2.2 9.9-3.7 0 0.3 0 0.5 0 0.7 0.5 4 4 6.9 8 6.4 4-0.4 6.9-4 6.4-7.9v-0.3c2.4 0.2 4.9 0.6 7.4 1.4z"/>
			<path id="path436" class="s76" d="m407.5 817.2c-7.3-0.1-14.1 1.7-19.5 4.8 0.9-9.5 12.5-12.8 20.9-12.4 19.1 0.9 21 8.7 22.4 16-6.1-6-14.3-8.3-23.8-8.4z"/>
			<path id="path438" class="s77" d="m391.7 831.3c2.8-2.9 7.5-8 16.6-6.7 4.1 0.7 9.9 3.9 15.1 10.1 0 0-3.9-2.2-9.9-3.7 0 0.3 0 0.5 0 0.7-0.4 4-4 6.9-8 6.4-4-0.4-6.9-4-6.4-7.9v-0.3c-2.4 0.2-4.9 0.6-7.4 1.4z"/>
			<path id="path440" class="s78" d="m373 888c-8.8 0-17.7-0.9-25.2-3.5-1.2-0.4-2.4 0.9-2 2.2 3.7 12.5 14.5 19.9 27.2 19.9 12.7 0 23.5-7.5 27.2-20.2 0.4-1.3-0.7-2.4-1.9-2-7.6 2.4-16.5 3.6-25.3 3.6z"/>
			<path id="path442" class="s0" d="m350.2 885.3c0.7 4 3.6 11 22.8 11 19 0 22.9-7.8 23.4-11.4-7.2 2.1-15.3 3.1-23.4 3.1-7.9 0-15.8-0.7-22.8-2.7z"/>
			<path id="path444" class="s79" d="m350.3 885.4v0.2l0.1 0.3c0.2 0.9 0.5 1.9 1 2.9 4.3 1.9 11 3.3 21.5 3.3 10.7 0 17.7-1.7 22.2-3.8 0.6-1 1-2 1.2-2.8v-0.1-0.3-0.1-0.1c-2.8 0.8-5.9 1.5-9 2-4.7 0.7-9.5 1.1-14.3 1.1-7.9 0-15.8-0.7-22.8-2.7z"/>
			<path id="path446" class="s80" d="m359.7 872.3c-4.3-7.6-0.4-12.1 4.3-17 3.6-3.7 7.8-8.5 8.4-13.5 1.2-10-3.7-18.8-4.7-20.4 2.1 2 10.2 10.8 9.3 21.8-0.6 6.8-5.4 11.4-9.3 15.7-3.8 4.2-5.1 8-3.3 10.8 3 4.6 10.3 5.3 17.2 3.7-9.4 6.7-19.3 3.5-21.9-1.1z"/>
			<path id="path448" class="s40" d="m357 1095h6l-0.1-99-5.9 2.9z"/>
			<path id="path450" class="s40" d="m428.7 951.9c-5.5 8.7-17.9 21.8-47.5 38.6 15.9 26.9 45.9 39.2 45.9 39.2 0 0 24.4-28.3 29.2-59.5 1.9-11.8-2.3-16.3-8.4-24.6-5.2-7-11.8-5.1-19.2 6.3z"/>
			<path id="path452" class="s40" d="m313.7 938c-4.2 7.6 0.3 43.1 51 51.8l-4.5 15.9c-14.1 15.4-39.1 25.1-39.1 25.1 0 0-26.3-31.4-30.4-65.4-2.4-20.7 8-22.7 23-27.4z"/>
			<path id="path454" class="s36" d="m423.8 927.8c8.4 2.5 26.8 19.7-45.9 60.4 23.4 23.4 47 31.9 47 31.9 0 0 27.6-36.5 30.7-61.6-0.1-5.4-12.6-25.8-31.8-30.7z"/>
			<path id="path456" class="s36" d="m322.7 926.3c-9.5 4.7-25.6 21.2 49 61.9-24.2 23.4-48.5 31.9-48.5 31.9 0 0-28.9-44.6-32.1-69.6-0.8-5.8 10.6-18.1 31.6-24.2z"/>
			<path id="path458" fill-rule="evenodd" class="s81" d="m380.4 1003.3c0 3.2-2.6 5.7-5.7 5.7-3.2 0-5.7-2.5-5.7-5.7 0-3.2 2.5-5.7 5.7-5.7 3.1 0 5.7 2.5 5.7 5.7zm-2.8 0c0-1.6-1.3-2.9-2.9-2.9-1.6 0-2.9 1.3-2.9 2.9 0 1.6 1.3 2.9 2.9 2.9 1.6 0 2.9-1.3 2.9-2.9z"/>
			<path id="path460" fill-rule="evenodd" class="s81" d="m380.4 1068.1c0 3.1-2.6 5.7-5.7 5.7-3.2 0-5.7-2.6-5.7-5.7 0-3.2 2.5-5.8 5.7-5.8 3.1 0 5.7 2.6 5.7 5.8zm-2.8 0c0-1.7-1.3-3-2.9-3-1.6 0-2.9 1.3-2.9 3 0 1.6 1.3 2.9 2.9 2.9 1.6 0 2.9-1.3 2.9-2.9z"/>
			<path id="path462" fill-rule="evenodd" class="s81" d="m380.4 1035.7c0 3.1-2.6 5.7-5.7 5.7-3.2 0-5.7-2.6-5.7-5.7 0-3.2 2.5-5.7 5.7-5.7 3.1 0 5.7 2.5 5.7 5.7zm-2.8 0c0-1.6-1.3-2.9-2.9-2.9-1.6 0-2.9 1.3-2.9 2.9 0 1.6 1.3 2.9 2.9 2.9 1.6 0 2.9-1.3 2.9-2.9z"/>
			<path id="path464" class="s36" d="m137.8 928.6l23 137.5 91.1 39.3 37.9 57.5-50.6-218.8c-13.8-2.2-64-12.1-64-12.1z"/>
			<path id="path466" class="s36" d="m261.7 939.4c0 0-20.5-8.2-24.1-7.9-3.6 0.3-9.5 4.7-9.5 4.7 0 0-9.9-5.7-13.6-6.1-3.7-0.5-10.4 3.9-10.4 3.9 0 0-2.2-3.6-5.4-5.1-3.2-1.4-23.5 3.1-23.5 3.1l34.8 23.4 29.7 9.3z"/>
			<path id="path468" class="s29" d="m1575.8 1112.3l-75.4 26.5-41.1-80.1c0 0 68.9-95.2 112.5-111.8z"/>
			<path id="path470" class="s82" d="m1620.6 901.8c6.4-26.6 28.2-44.7 108-35.9 79.8 9 90.7 34.9 89.9 47.1-0.7 12.2-30.6 37.9-52.6 45-22 7-54 36.4-54 36.4 0 0-12.2-37.2-38.1-44.3-25.9-7.1-59.9-20.3-53.2-48.3z"/>
			<path id="path472" class="s29" d="m1787.9 886.4l0.6-12.9c-20.9-9.4-43-15-65.8-16.7-20.2-1.5-40.3 0.1-60 4.7l-0.5 12.5c42.1-10.5 86.2-6.3 125.7 12.4z"/>
			<path id="path474" class="s8" d="m1765.6 918.6c-7.5-5.4-9.7-11.8-8.8-42.6l-1.2-8.3-36.1 3.5-36.1-3.5-1.3 8.3c0.9 30.8-1.4 37.9-8.9 43.2-7.5 5.4-28.8 14.8-28.8 14.8 0 0 31.5 55.5 75 52.9h0.1 0.1c43.4 2.6 74.9-52.9 74.9-52.9 0 0-21.4-10.1-28.9-15.4z"/>
			<path id="path476" class="s8" d="m1775.7 805.5c6.2-17 8.7-17.7 13.5-15.2 5.5 2.9 7.4 22.8 5 30.2-2.3 7.4-5.1 25-10.6 24-5.6-0.9-8.8-15.3-8.8-15.3z"/>
			<path id="path478" class="s8" d="m1664.1 805.5c-6.1-17-8.6-17.7-13.3-15.2-5.5 2.9-7.4 22.8-5.1 30.2 2.4 7.4 4.7 25 10.3 24 5.5-0.9 9.1-15.3 9.1-15.3z"/>
			<path id="path480" class="s83" d="m1719.4 738.9c-27.5 0-49.8 28.1-49.8 62.7v39.3c0 17.1 6.4 31.8 14.1 43.8 7.6 11.7 19.6 26.9 35.7 26.9 16.3 0 27.8-14.6 35.8-26.9 7.7-12 14.1-26.7 14.1-43.8v-39.3c0-34.6-22.3-62.7-49.9-62.7z"/>
			<path id="path482" class="s8" d="m1719.4 731c-34.6 0-62.7 28.1-62.7 62.7v39.3c0 17.1 6.8 32.5 17.8 43.8 11.4 11.7 27.3 27.7 44.9 27.7 17.7 0 33.6-16 44.9-27.7 11.1-11.3 17.8-26.7 17.8-43.8v-39.3c0-34.6-28-62.7-62.7-62.7z"/>
			<path id="path484" class="s84" d="m1682 811.9c-2.4-5.7 3.1-11.2 8.8-8.8 1.5 0.6 2.7 1.8 3.3 3.2 2.4 5.8-3 11.3-8.8 8.9-1.5-0.6-2.7-1.8-3.3-3.3z"/>
			<path id="path486" class="s84" d="m1680.5 802.5l-6.7-3.1 1.7 5.1-8.9-3.2 5.1 5.7c1.2 1.5 3.2 2 5 1.5 3.4-1 7.3-1.5 11.4-1.5 5.3-0.1 10.2 0.8 14.2 2.3-8.3-10.6-16.4-10-21.8-6.8z"/>
			<path id="path488" class="s84" d="m1758 810.3c1.1-5.2-4-9.6-9.3-7.4-1.5 0.6-2.6 1.8-3.3 3.3-2.1 5.3 2.4 10.3 7.6 9.2 2.5-0.5 4.5-2.5 5-5.1z"/>
			<path id="path490" class="s84" d="m1759.1 802.2l6.6-3.1-1.6 5.1 8.9-3.3-5 5.7c-1.3 1.5-3.4 2.1-5.3 1.5-3.4-0.9-7.2-1.4-11.2-1.3-5.3 0-10.2 0.9-14.2 2.4 8.3-10.6 16.3-10.1 21.8-7z"/>
			<path id="path492" class="s85" d="m1702.1 797.7c-1.8 0-4.3-0.3-7.8-1.1-7.3-1.7-12.7-2.3-16.8-2.3-6 0-9.2 1.2-11.9 2 2.6-2.5 9.9-7.8 15.1-8.2q1.4-0.1 2.8-0.1c9.6 0 18.9 2.9 20.5 4.2 2.4 2.2 3.9 5.5-1.9 5.5z"/>
			<path id="path494" class="s85" d="m1736.9 797.7c-5.7 0-4.2-3.3-1.8-5.5 1.5-1.3 10.9-4.2 20.5-4.2q1.4 0 2.8 0.1c5.2 0.4 12.4 5.1 15 7.6-2.5-0.7-5.4-1.6-10.6-1.6-4.2 0-9.9 0.6-18.1 2.5-3.4 0.8-5.9 1.1-7.8 1.1z"/>
			<path id="path496" class="s83" d="m1706.9 850.9c-4.1-7.4-0.4-11.7 4.1-16.4 3.5-3.6 7.5-8.2 8.1-13.1 1.2-9.7-3.6-18.1-4.5-19.6 2 1.9 9.8 10.4 8.9 21-0.5 6.5-5.2 11-9 15.1-3.6 4.1-4.9 7.8-3.1 10.4 2.9 4.5 9.9 5.2 16.6 3.6-9 6.5-18.6 3.4-21.1-1z"/>
			<path id="path498" class="s86" d="m1718.5 863.2c-5.4 0-25.2 1.8-25.2 1.8 5.4 7.4 6.9 19.4 25.2 19.4 18.8 0 21.4-15.3 25.6-19.6 0 0-20.2-1.6-25.6-1.6z"/>
			<path id="path500" class="s87" d="m1718.5 862.5c-5.8 0-25.8 2.3-25.8 2.3 0 0 8.7 11.8 26.2 11.8 17.4 0 25.3-11.8 25.3-11.8 0 0-19.8-2.3-25.7-2.3z"/>
			<path id="path502" class="s53" d="m1718.5 862.5c-5.2 0-22.4 2.5-22.4 2.5 0 0 2.7 3 8.2 5.8 3.9 1.3 8.7 2.3 14.6 2.3 5 0 9.2-0.7 12.7-1.8 6.2-2.8 9.2-6.3 9.2-6.3 0 0-17.2-2.5-22.3-2.5z"/>
			<path id="path504" class="s54" d="m1699.3 867.7c5.6 0.8 13.5 1.7 19.2 1.7 5.7 0 13.6-0.9 19.1-1.7 2.1-1.5 3.2-2.7 3.2-2.7 0 0-17.2-2.5-22.3-2.5-5.2 0-22.4 2.5-22.4 2.5 0 0 1.1 1.2 3.2 2.7z"/>
			<path id="path506" class="s88" d="m1718.5 861.5c-11.1 0-25.8 3.3-25.8 3.3 0 0 16.2 2.4 25.8 2.4 9.7 0 25.7-2.4 25.7-2.4 0 0-14.6-3.3-25.7-3.3z"/>
			<path id="path508" class="s89" d="m1656.4 804.1c5.8-25.3 25.7-65.7 88.9-65.7 25.2 18 31.8 36.5 35.5 65.7 25.2-68.5 7.3-100-32.7-105.3-31.8-4.2-113.2 22.1-91.7 105.3z"/>
			<path id="path510" class="s90" d="m1758.4 705.3c-9.8-30-97-41.5-125.7 24.4 7.2-2.3 17.3-4.2 17.3-4.2 0 0-27.6 16-27.1 56.4 8.4-10 23.6-18.4 23.6-18.4 0 0-33 26.9-5.4 91.3 12.2-112.1 146.2-60.6 117.3-149.5z"/>
			<path id="path512" class="s91" d="m1706.6 1340.7l-135.4-27.4-32.7 315.7 104.4 0.1 53.9-177.3 6.4 177.3h111.4l23.8-282z"/>
			<path id="path514" class="s29" d="m1571.8 946.9c13.6-5.7 52.9-18.6 52.9-18.6 24.2 7 64.4 31.5 89.9 60.5 22.8-26.6 69.3-45.3 89.9-60.5 0 0 48.5 9 113.7 50.5-6 6.2-52.3 40.9-52.3 40.9l-13.2 102.7 11.4 128.6-20.9 113.3-3 27.5c0 0-128 22.7-283-53.1l-5.6-51.4 17.8-48.4-14.3-119.3c0 0 8.9-169.4 16.7-172.7z"/>
			<path id="path516" class="s29" d="m1583.7 1210.4c0 0-29.5 42.7-28.6 54 0.9 11.2 9.2 33.7 9.2 33.7z"/>
			<path id="path518" class="s29" d="m1844.4 1238.9c0 0 21.4 67.6 19.7 77.9-1.8 10.2-25.7 67.7-25.7 67.7z"/>
			<path id="path520" class="s92" d="m1568.8 1233.7l0.6-55.2-2.2 41.8z"/>
			<path id="path522" class="s93" d="m1608.9 924.8c-8 3.9-6.9 13.7-1.5 18.7 4.7 4.4 12.4 6.1 26.8 9.6 27.3 6.7 59 9.4 78.5 37-16.2-50.9-104.5-67-103.8-65.3z"/>
			<path id="path524" class="s93" d="m1830.3 936.4c7.3 5 9.6 16.3 1.1 21.8-8.5 5.4-20.1 4.6-34.9 5.9-27.9 2.5-59.6 1.6-83.1 26 23.6-47.8 117.8-55.3 116.9-53.7z"/>
			<path id="path526" class="s29" d="m1821.2 922.8c1.1-2.2 1.7-4.2 2-5.6 2.6-12.9-5.1-26.6-20.7-36.8l-0.4-0.3-0.4-0.2q-6.5-3.5-13.2-6.4l-0.6 12.9q4.5 2.1 8.8 4.4c21.1 13.7 21 31.7 0.8 34.3-42.2 9.9-64.8 33.6-83.9 52.7-16-21.8-34.8-48.6-75.1-64.7-19.6-5.5-16.9-23.4 6-33.8 5.8-2.4 11.7-3.8 17.7-5.3l0.5-12.5c-14.5 2.9-22.4 6.7-22.4 6.7-17 7.7-26.7 20.1-26 33.3 0.1 1.4 0.4 3.5 1.1 5.8-8.6 5.5-20.1 19.3-14.6 27.2 12.3 17.5 79.9 9.8 111.5 61 38.8-45.8 104.5-28.2 119.3-43.6 6.7-7-2.7-22.4-10.4-29.1z"/>
			<path id="path528" class="s94" d="m1688.1 963.6c0.1-2.5 2.1-4.5 4.6-4.5 2.5 0 4.6 2.1 4.5 4.6 0 2.5-2.1 4.5-4.6 4.5-2.5-0.1-4.5-2.1-4.5-4.6z"/>
			<path id="path530" fill-rule="evenodd" class="s0" d="m1692.6 969c-2.9 0-5.3-2.5-5.3-5.4 0-3 2.5-5.4 5.4-5.4 3 0.1 5.4 2.5 5.4 5.5-0.1 3-2.5 5.3-5.5 5.3zm0.1-9.1c-2 0-3.7 1.6-3.7 3.7 0 2 1.6 3.7 3.6 3.7 2.1 0.1 3.8-1.6 3.8-3.6 0-2.1-1.6-3.8-3.7-3.8z"/>
			<path id="path532" class="s95" d="m1693 1054.1h-2.4l0.1-7.9h2.4z"/>
			<path id="path534" class="s0" d="m1692.5 1047.5l-1.4-0.1c-0.7 0-1.4-0.6-1.3-1.4l0.8-82.6c0-1.2 0.9-2.1 2.1-2.1 1.2 0 2.1 1 2.1 2.1l-0.9 82.7c0 0.7-0.6 1.4-1.4 1.4z"/>
			<path id="path536" class="s94" d="m1740.1 966.9c0-2.5-2-4.6-4.5-4.6-2.5 0-4.6 2.1-4.5 4.6 0 2.5 2 4.5 4.5 4.5 2.5 0 4.5-2 4.5-4.5z"/>
			<path id="path538" fill-rule="evenodd" class="s0" d="m1730.2 966.9c0-3 2.4-5.4 5.4-5.4 3 0 5.4 2.4 5.4 5.4 0 2.9-2.4 5.4-5.4 5.4-3 0-5.4-2.4-5.4-5.4zm1.7 0c0 2 1.7 3.7 3.7 3.7 2 0 3.7-1.7 3.7-3.7 0-2.1-1.7-3.7-3.7-3.7-2.1 0-3.7 1.7-3.7 3.7z"/>
			<path id="path540" class="s95" d="m1734.6 1078.2h2.4v-8h-2.4z"/>
			<path id="path542" class="s0" d="m1735.1 1071.5h1.4c0.8 0 1.4-0.6 1.4-1.4l-0.2-103.4c0-1.2-1-2.1-2.1-2.1-1.2 0-2.1 0.9-2.1 2.1l0.2 103.4c0 0.8 0.6 1.4 1.4 1.4z"/>
			<path id="path544" class="s0" d="m1837.8 1417.9c-93.2 1.7-190-17.1-283.2-54l3.2-25.2c93.2 36.8 189.8 54.9 283 53.1z"/>
			<path id="path546" class="s96" d="m1553.1 1020.9l18 82.2 6.5 58.6 9.5 29.7-7.8-87.9z"/>
			<path id="path548" class="s97" d="m2018.8 1629l7.8-175.1 47.2 175.1h113.6c-14.9-146.5-22.6-216-32.1-265.6-6.4-34-13.1-58.9-24.1-92.7 0.2 0-103.9-6.6-104.1-6.6-0.1 0-115.7-3.4-118.6-3.6-7.2 30.1-12.6 84-15.4 168.9-0.9 26.2-0.3 100.4 10 199.6z"/>
			<path id="path550" class="s98" d="m2149.2 965.6l-118.3 43.2-105.5-54.3 53.9-32c4.6-2.7 8.5-7.7 8.5-13l0.4-58.5 82.5-0.1v56.8c0 5.6 3.2 11.2 8 13.9z"/>
			<path id="path552" class="s0" d="m2204.6 976.1c-34.1-32.2-80.6-33.8-103.9-45.4 0 0-40.7 46.7-69 46.7-28.3 0-54.1-24.6-68.9-46.7 0 0-87.7 35.7-96.9 89-1 6.3 22 8.9 22 8.9l6.9 94.5 4.9 90.9-6.3 71.1-7.1 40.5c-1.1 4.5-1 9.2 0.4 13.6 2.8 9.4 3.3 15.7 9.3 27 31.1 11.6 135.7 46 268.6 40.8l8.3-30.9c1-4 1.1-8.2 0.1-12.2l-7.3-30.8 2.3-158.6c0 0 0.2-89.7 20.4-158 7-23.7 20.8-36 16.2-40.4z"/>
			<path id="path554" class="s99" d="m1978.1 921.9l0.6 1.9c3.6 11.3 16.1 37.7 53 37.7 36.9 0 50-26.7 53.6-38.1l15.8 7c-3 9.3-9 21.8-21.4 32.4-12.8 11-29 16.6-48 16.6-19 0-35.2-5.6-48-16.6-12.5-10.7-18.6-23.9-21.6-33.2z"/>
			<path id="path556" class="s0" d="m2162.6 1280.3l13.3 50.3c0.9 3.7-0.1 7.1-1.7 10.7l-16.5 37.3z"/>
			<path id="path558" class="s100" d="m1952.9 1316.5c-9.6-5.1-51.8-37.5-57.4-54.8l-0.5 4.9-1.6 18.5c7 11 48.8 30.4 59.5 31.4z"/>
			<path id="path560" class="s101" d="m1984.2 863.1c0-29.6 18.2-53.6 44.6-53.5 26.3 0 45.8 24.1 45.7 53.6 0 29.5-23.3 55.6-45.9 55.6-18.2 0-44.5-26.3-44.4-55.7z"/>
			<path id="path562" class="s98" d="m2029.2 726.9c-33.8 0.2-65.4 27.9-65.4 61.7l4.8 65.1c0 18.9 31.8 57.4 60.6 57.4 28.8 0 60.6-38.5 60.6-57.4l4.9-65.1c-0.1-33.8-31.7-61.5-65.5-61.7z"/>
			<path id="path564" class="s102" d="m2029 870.5c-8.8 0-17.7-0.8-25.3-3.2-1.2-0.4-2.4 0.8-2 2 3.7 11.8 14.5 20.2 27.3 20.3 12.9 0 23.8-8.6 27.5-20.5 0.4-1.2-0.7-2.3-2-1.9-7.6 2.3-16.6 3.3-25.5 3.3z"/>
			<path id="path566" class="s103" d="m2006.2 868c0.7 3.8 3.6 11.7 22.8 11.7 19.2 0 23.1-8.7 23.6-12-7.2 1.9-15.4 2.8-23.6 2.8-7.8 0-15.9-0.6-22.8-2.5z"/>
			<path id="path568" fill-rule="evenodd" class="s104" d="m2029.4 870.5q0 0 0.1 0-0.1 0-0.1 0zm0.2 0q0.1 0 0.1 0 0 0-0.1 0zm0.2 0q0.1 0 0.1 0 0 0-0.1 0zm0.2 0c7.8 0 15.7-0.9 22.6-2.8-6.9 1.9-14.8 2.8-22.6 2.8z"/>
			<path id="path570" class="s105" d="m2029.2 870.5q0.1 0 0.2 0-0.1 0-0.2 0zm0.3 0q0 0 0.1 0-0.1 0-0.1 0zm0.2 0q0.1 0 0.1 0 0 0-0.1 0zm0.2 0h0.1z"/>
			<path id="path572" fill-rule="evenodd" class="s104" d="m2027.9 870.5c-7.1 0-14.4-0.6-20.8-2.2 6.4 1.6 13.7 2.2 20.8 2.2zm0.9 0q0 0 0 0 0 0 0 0 0 0 0 0zm-0.1 0h-0.1q0 0 0 0 0 0 0 0 0 0 0.1 0zm-0.2 0q-0.1 0-0.1 0 0 0 0 0 0 0 0.1 0zm-0.2 0q-0.1 0-0.1 0-0.1 0-0.1 0 0.1 0 0.2 0zm-0.2 0q-0.1 0-0.2 0 0 0 0 0 0.1 0 0.2 0z"/>
			<path id="path574" class="s105" d="m2029 870.5q-0.1 0-0.2 0 0.1 0 0.2 0zm-0.2 0q-0.1 0-0.2 0h0.1q0 0 0.1 0 0 0 0 0zm-0.2 0q-0.1 0-0.1 0 0 0 0.1 0 0 0 0 0zm-0.2 0q-0.1 0-0.1 0 0 0 0.1 0 0 0 0 0zm-0.2 0q-0.1 0-0.1 0 0 0 0 0 0 0 0.1 0zm-0.3 0q0 0 0 0 0 0 0 0zm24.7-2.7q0 0 0 0z"/>
			<path id="path576" class="s106" d="m2029.1 874.4q-0.1 0-0.1 0c-10.7 0-17.5-1.3-21.8-3.2q-0.3-0.5-0.4-1l-0.1-0.1q-0.1-0.5-0.3-1-0.1-0.4-0.2-0.8v-0.2-0.1q0.4 0.1 0.9 0.3c6.4 1.6 13.7 2.2 20.8 2.2q0 0 0 0 0.1 0 0.2 0 0 0 0.1 0 0 0 0.1 0 0 0 0.1 0 0 0 0.1 0 0 0 0.1 0 0 0 0 0 0.1 0 0.2 0 0 0 0 0 0.1 0 0.2 0 0.1 0 0.2 0 0.1 0 0.2 0 0 0 0.1 0 0 0 0.1 0 0.1 0 0.1 0 0.1 0 0.1 0 0.1 0 0.1 0h0.1c7.8 0 15.7-0.9 22.6-2.8v0.1q0 0 0 0v0.1l-0.1 0.3v0.1q0 0.1-0.1 0.3v0.1q-0.2 0.7-0.6 1.5v0.1q-0.1 0.2-0.2 0.5h-0.1c-4.5 2-11.5 3.6-22.4 3.6z"/>
			<path id="path578" class="s107" d="m1977.5 819.4c6.8-5.1 12.7-7.2 20.3-6.3 7.6 1 13.8 8.2 13.8 8.2 0 0-4.4-10.6-14.3-12.2-13.2-2.1-19.8 10.3-19.8 10.3z"/>
			<path id="path580" class="s107" d="m1987.3 816.3c0-3.8 2.9-6 6.6-6 3.7 0 6.8 2.2 6.8 6 0 3.7-3 6.7-6.7 6.7-3.7 0-6.7-3-6.7-6.7z"/>
			<path id="path582" class="s107" d="m2080.5 819.4c-6.7-5.1-12.7-7.2-20.3-6.3-7.6 1-13.8 8.2-13.8 8.2 0 0 4.4-10.6 14.3-12.2 13.2-2.1 19.8 10.3 19.8 10.3z"/>
			<path id="path584" class="s107" d="m2070.7 816.3c0-3.8-2.8-6-6.6-6-3.7 0-6.8 2.2-6.8 6 0 3.7 3 6.7 6.7 6.7 3.7 0 6.7-3 6.7-6.7z"/>
			<path id="path586" class="s108" d="m2013.6 799.6c0 0-3.9-6.5-7.4-8.2-3.7-1.9-16-1.2-21.3 1.3-7.5 3.6-13.2 13.4-13.2 13.4 7.1-5.9 16.4-7.8 26.3-8 7.3-0.1 15.6 1.5 15.6 1.5z"/>
			<path id="path588" class="s108" d="m2044.7 799.6c0 0 4-6.5 7.5-8.3 3.7-1.9 16-1.1 21.3 1.5 7.4 3.6 12.8 13.3 12.8 13.3-7.1-5.9-16.1-7.8-26-8-7.3-0.1-15.6 1.5-15.6 1.5z"/>
			<path id="path590" class="s98" d="m1973.1 821.8c-7.7-17.7-12.6-24-16.9-19.8-4.2 4.1-6.8 23.9-3.8 31.6 3 7.7 7.4 26 13.7 24.8 6.4-1.2 8.8-16.3 8.8-16.3z"/>
			<path id="path592" class="s98" d="m2084.9 821.8c7.8-17.7 12.7-24 16.9-19.8 4.2 4.1 6.9 23.9 3.8 31.6-3 7.7-7.4 26-13.7 24.8-6.3-1.2-8.8-16.3-8.8-16.3z"/>
			<path id="path594" class="s109" d="m2031.3 862.9c-9.2 2.6-14.4 0.4-16.7-3.3-4.3-6.7 1.1-12.1 5.5-16.4 3.4-3.3 6.9-6.7 7.4-11.3 0.8-6.9-1-12.5-2.4-16.6q-0.5-1.6-0.9-2.7c1.8 2.3 8.7 10 7.9 19.9-0.4 6.2-5 10.3-8.8 14-4.8 4.8-6.4 6.9-4.4 10.1 4.6 7.1 15.3 3.8 16.8 3.4-0.8 1.2-3.3 2.5-4.4 2.9z"/>
			<path id="path596" class="s110" d="m2027.2 699.7c-55.6 0.9-76 38.2-74.9 60 1.3 26.4 7.9 42.4 12.2 62.2 0.4-16.2 5.2-46.7 9.2-55.2 8-16.5 30.6-11.1 54.5-11.5 23.9-0.4 49.6-5.7 58.2 10.5 4.7 9.5 7.8 32.4 5.4 62.6 3.9-15.8 11.9-43.8 13.6-71.1 1.3-21.8-22.7-58.4-78.2-57.5z"/>
			<path id="path598" fill-rule="evenodd" class="s111" d="m2064.3 845.2c-5.2 0-12.5-1-18.3-6-6.1-5.2-7.5-10.5-8.6-14.4q-0.2-0.5-0.3-1.3c-0.8-3-2-8.2-8.2-8.2h-0.1c-6.2 0-7.5 5.4-8.1 8.2q-0.2 0.8-0.3 1.3c-1.1 3.9-2.6 9.2-8.7 14.4-5.8 5-13.1 6-18.3 6h-0.2q-2.1 0-4.2-0.2c-2.5-0.3-4.8-0.7-6.9-1.2-15.1-3.8-17.5-12.8-19.6-20.8q-0.3-0.8-0.4-1.6c-0.9-3.3-1.6-6.1-3.8-7.6-0.3-0.2-0.7-0.6-0.8-1.3l-0.6-6.7c0-0.6 0.4-1.2 1-1.4 4.6-1.1 16.3-3.7 25.3-3.7q0.4 0 0.9 0c15 0.3 28.4 2.7 39.7 7.1 0.7 0.2 1.1 0.4 1.3 0.4 1.4 0.4 2.6 0.5 3.8 0.5 1.1 0 2.3-0.1 3.7-0.5 0.3 0 0.6-0.2 1.2-0.4 11.5-4.4 24.9-6.8 39.9-7.1q0.4 0 0.8 0c9 0 20.7 2.6 25.3 3.7 0.6 0.2 1.1 0.8 1 1.4l-0.6 6.7c-0.1 0.7-0.5 1.1-0.8 1.3-2.2 1.5-2.9 4.3-3.7 7.6q-0.2 0.8-0.4 1.6c-2.2 8-4.6 17-19.6 20.8-2.2 0.5-4.5 0.9-6.9 1.2q-2.2 0.2-4.3 0.2zm5.9-38.9c-1.4 0-2.8 0-4 0.1-5.2 0.3-10.1 0.7-14.2 1.7-3.8 1-6.5 2.4-8.6 4.6-2 2.2-3.2 11.2 0.6 18.4 2.6 4.9 8.4 10.8 21.2 10.8h0.2q1 0 1.9-0.1 3.7-0.1 6.8-0.9c5.1-1.3 9.2-3.8 12.1-7.5 5.9-7.5 6.7-17.6 4.1-22.6-2-3.8-8.2-4.5-19-4.5zm-83.9 0c-10.7 0-16.9 0.7-18.9 4.5-2.6 5-1.8 15 4.1 22.5 2.9 3.7 6.9 6.3 12.1 7.6q3.1 0.7 6.7 0.9 1 0.1 2 0.1h0.2c12.8 0 18.6-5.9 21.2-10.8 3.7-7.2 2.6-16.3 0.5-18.4-2-2.2-4.7-3.6-8.5-4.6-4.1-1-9.1-1.4-14.2-1.7-1.2-0.1-2.6-0.1-4.1-0.1z"/>
			<path id="path600" class="s112" d="m2023 688.4c-13.8-8.4-35.3-5.1-46.2 8.4-5.5 6.7-13.8 17.1-21.7 12-8.4 6.1-9.4 13.1-6.3 22.2-7.1 2.8-9.9 12.1-7.8 19.5 2.6-3.2 9.2 0.5 8 10.1-1.3 9.5-0.6 15.4 2.8 19 3.4 3.7 15.7 12.3 26.5 0.3-1.1 0.6-7.3 1-6.7-2.8 0.6-3.8 4.2-4.8 4.2-4.8 0 0 6.6 12 17.7 1.2 2.2 3.4 6.3 15.4 25.5 8.5 19.2-7 19.9 7 19.9 7 0 0 16.7 1.3 20.7-10.1 1.7 1.8 13.3 9.5 26.2-0.2 16.8 4.4 33.4-12.9 29.6-33.2 0 0-2.2 2.2-3.8 1.5-4.1-1.7 2.5-7.9-4.4-22.9-6-13-17.4-17.7-19-18.5-2.8-7.5-13.7-15-23.2-13.3-20.2-16-42-3.9-42-3.9z"/>
			<path id="path602" class="s113" d="m2081.5 764.9c-5 3.4-10.9 3.9-16.2 2.2 5.8 7 14.9 9.4 21.2 5.3 6.2-4.2 7.5-13.5 3.2-21.6-0.4 5.5-3.2 10.8-8.2 14.1z"/>
			<path id="path604" class="s113" d="m2034.8 759.3c4.4 4.1 6.6 9.4 6.6 14.4 4.5-6.1 3.9-14.6-1.6-19.8-5.5-5.1-14-5-19.8-0.1 4.9-0.4 10.4 1.5 14.8 5.5z"/>
			<path id="path606" class="s113" d="m2066 753.9c4.4-1.2 8.8-0.5 12 1.5-2.2-5.4-8-8.5-13.6-6.9-5.5 1.5-8.9 7.1-8 12.9 1.7-3.4 5.2-6.2 9.6-7.5z"/>
			<path id="path608" class="s113" d="m2091.9 729.7c-1.3 4.3-4.2 7.6-7.6 9.3 5.7 1 11.4-2.2 13-7.7 1.7-5.4-1.2-11.3-6.5-13.6 1.9 3.3 2.4 7.6 1.1 12z"/>
			<path id="path610" class="s113" d="m1974.2 730.7c4.1 3.6 6.2 8.7 6.1 13.5 4.5-6.4 4.1-14.7-1.1-19.2-5.2-4.6-13.5-3.8-19.2 1.6 4.8-0.8 10 0.5 14.2 4.1z"/>
			<path id="path612" class="s113" d="m1997.7 762.5c-4.4 2.4-9.3 2.8-13.3 1.4 3.7 5.3 10.7 7.2 16.3 4.1 5.6-3 7.9-9.8 5.6-15.9-1.1 4.1-4.1 8-8.6 10.4z"/>
			<path id="path614" class="s113" d="m1965.6 752.4c-2.8-4.3-3.6-9.1-2.5-13.2-5 4.1-6.3 11.2-2.8 16.6 3.5 5.3 10.5 7.1 16.3 4.2-4.1-0.7-8.3-3.4-11-7.6z"/>
			<path id="path616" class="s113" d="m2001 698.8c6.9-2.8 14.2-3 20.9-1.1-7.3-5.5-15.8-7.4-23.1-4.4-7.4 3-12.1 10.4-13.4 19.4 3.4-6.1 8.8-11.1 15.6-13.9z"/>
			<path id="path618" class="s113" d="m2048.3 695.8c-5.6-2.3-11.4-2.5-16.9-1 5.9-4.4 12.7-5.9 18.7-3.5 5.9 2.4 9.7 8.4 10.8 15.6-2.8-4.9-7.1-8.9-12.6-11.1z"/>
			<path id="path620" class="s113" d="m1994.8 742.1c1-0.6 2-1.3 2.8-2 4.8-4 7.2-10.1 13.3-12.7 2.9-1.2 6.2-1.4 9.4-0.9 3.4 0.4 6.8 1.6 10.2 2.4q0.8 0.2 1.6 0.3c2.2 0.5 4.4 0.8 6.5 0.9 2.2 0.1 4.4 0.1 6.6-0.9-0.7 1-1.7 1.8-2.8 2.4-1 0.6-2.2 1-3.4 1.3-4.1 1.1-8.9 1.2-13.1 0.5-4.2-0.8-8.8-2.3-13.1-0.9-4.3 1.4-7.2 5.2-11 7.5-2.2 1.3-4.6 2.1-7 2.1z"/>
			<path id="path622" class="s113" d="m2026.7 717.3c1.2 0 2.4-0.2 3.5-0.4q1.6-0.4 3.1-1c6-2.2 11-5.6 17.6-3.5 5 1.5 8.7 5.4 12.5 8.8 3.7 3.4 8.7 7.7 14 8-1.1 0.5-2.3 0.8-3.6 0.8-1.2 0.1-2.5-0.1-3.7-0.4-4.6-1-8.6-3.2-12.2-6.1-3.3-2.6-6.7-5.7-11.1-6.4-6.9-1-13.3 3.6-20.1 0.2z"/>
			<path id="path624" class="s114" d="m2105.1 1058.3l9-2.1-15.5-6.2 13 0.2c-11.5-12.9-26-13.8-38.8-10.7l8.4 3.9-17.8-0.7 9.9 3.4-17.6 0.1c-7.2 3.8-11.8 7.5-11.8 7.5 0 0-5-5.1-13-11.4l-19.8-6 11-0.3-20.7-5.7 9.9-1.2c-16.3-8.9-35.9-14.5-50.6-3.3l17.9 5-21.1 1.1 13.2 6.2-18.3 4.6 9.8 5.3 148.8 20.5 7.6-4.1z"/>
			<path id="path626" class="s115" d="m1950.2 1046.4l10.9 6.7-14.6 0.8 24.6 8.2-23 1.1 17 6.4-17.5 1.1 21.5 8.3-5.6 1.7 148.8 15.2-4.2-2.4 14.4-3.4-12.1-3.8 11.3-2.4-16.2-5.1 16.6-2.2-10.1-3.5 7.1-3.4z"/>
			<path id="path628" class="s3" d="m1953 1084l11.2 4.1-8.5 3.4 36.2 8.6-30.2 2.3 12.1 5.6-6.5 3.9 0.1 0.1 0.5 0.2 143.4 9.7 0.4-0.1-5-4.1 8.2-3.3-22.6-5.9 26.1-2.4-6.1-4 7.4-1.8-7.4-4.4-148.8-15.2z"/>
			<path id="path630" class="s115" d="m2090.8 1150.5l-5.9-3.7 3.5-0.7 7-1.4-5.9-4.5 10.6-1.3-13.2-4.5 17.2-1.1-5-2.8 8.1-2.7-10.1-2.1 14.2-3.8-143.4-9.7 19.7 6.7-13.3 0.9 11.2 4.3-6.4 2.7 22.3 3.3-16.3 3.7 13.8 2.5-7.1 4.5 9.1 2.2 4.4 1-6.5 3.5 91.5 3.1z"/>
			<path id="path632" class="s114" d="m2073.8 1152.9l16.5-2.3-91.5-3.1-0.4 0.2 20.5 3.8-13.4 2.8 16.6 4.3-8.9 3.1 10.9 1.4-6.3 2.8 16.5 1-5.5 3.6-3.6 2.3 16.9 2.1-9.3 3.7 10.7 1.7-5 2.4 10 2.7 10-3-5.1-2.2 10.1-1.7-9.1-3.6 15.6-2-3.5-2.2-5.4-3.6 14.8-0.7-5.8-2.7 9.4-1.1-8-3.1 14-3.4z"/>
			<path id="path634" class="s33" d="m2133.3 934.2l13.2-3.4c0 0 14.4-10.1 19.3-8.1 4.9 2 17.3 14.1 17.3 14.1 0 0 13.9 4.6 14.7 10.3 3.4 0.4 8.1 3.7 8.5 7.7 0.6 7.7 1.3 20.2-0.7 21.7-1 0.6-3.3 1.5-4.8 0.6-1.1 1.5-9.9 4.5-12.9-7.7-8.3 2.8-14.2-13.5-18.2-24.1-5.9-3.3-9.8-7.1-10.6-9.9-8.6-5-25.8-1.2-25.8-1.2z"/>
			<path id="path636" class="s9" d="m2181.6 961.1c-0.1-6.3 4.2-5 4.8-3.2-0.4-3.3-3-3-4.2-2-1.9 1.7-0.6 5.2-0.6 5.2z"/>
			<path id="path638" class="s9" d="m2195.3 973.5c-1.1-6.2 3.3-5.6 4.2-3.9-0.9-3.2-3.5-2.5-4.5-1.3-1.6 2 0.3 5.2 0.3 5.2z"/>
			<path id="path640" class="s9" d="m2183.8 938.6c0 0 5.2 12.1 5 26.1-2.2-12.2-5-26.1-5-26.1z"/>
			<path id="path642" class="s9" d="m2198.3 949.9c0 0 4 12.5 2.6 26.4-1.1-12.4-2.6-26.4-2.6-26.4z"/>
			<path id="path644" class="s116" d="m1282.9 1006l-18-24-13-12.4c0 0-6.1-4.9-9-7.8-2.8-3-3.5-8.3-6.1-9-6-1.7-11 10.1-2.7 22 8.4 11.9 9.7 15.2 9.7 15.2l-12.8 4.7c0 0-17.6-0.3-20.5 4.1-2.9 4.4-6.4 21.4-6.4 21.4 0 0-8.8 11.7-6.3 16.9-2.6 2.1-4.6 7.6-2.6 11 3.8 6.8 10.2 17.5 12.7 17.6 1.2 0 3.6-0.6 4.3-2.2 1.8 0.6 7.3-0.9 7.8-9.3 8.5-2.4 23.2-2.6 29.7-5.5 6.6-2.8 18.7-5.4 23-14.2 4.3-8.9 10.2-28.5 10.2-28.5z"/>
			<path id="path646" class="s9" d="m1223.2 1005.4c1 3.3-0.9 10.5-3.2 14.3 1.2 5.4 4.1 18.2 3.4 23.7-0.5 4-4.9 6.5-4.9 6.5l1.5 4.3 0.1-4c8-2.5 5.2-15.1 2.8-31 1-3.5 2.8-8.5 0.3-13.8z"/>
			<path id="path648" class="s117" d="m1318.3 877.2c8.6 48.1-3.2 114.3 65.2 114.3 65.6 0 59.8-64.5 70.3-114.3z"/>
			<path id="path650" class="s117" d="m1460 835.1c9.6-67.2-29.5-95.8-75.7-95.8-19.1 0-40.5 4.3-47.3 19.8-29.1 13.2-37.1 50-32.3 85.8 2 14.6 9.8 17.3 13.6 38.9h140.1c5-23.7-1-31.1 1.6-48.7z"/>
			<path id="path652" class="s117" d="m1306.4 813c-13.5 16.3-20.3 43-18.3 61.7 1.2 11.3 1.5 20.5-6.4 32.1-8.2 12.2-13.1 15.7-12.9 43.2 0.2 29.1-21.6 29.3-14.1 58.3 7.4 28.1 51.1 45.1 77.6 44.1-16.6-23.5-2-47.5 0.4-64.5 1.7-12.1 0.9-22-2.5-32.6-3.4-10.7-1-21.8 0-32.2 1.5-11.7 4.6-25.1 3.3-40.5-6.8-8-26.2-25.9-24-32.9 2.3-7-3.1-36.7-3.1-36.7z"/>
			<path id="path654" class="s117" d="m1455.3 807.8c17.5 18.7 20.9 43.9 19.2 61.3-1 10.5 0.5 19.5 7.9 30.2 7.8 11.2 11.4 12.5 11.4 38.1 0.1 26.9 16.7 22.3 13.5 45.9-3.6 26.7-53.4 47.8-78 47.1 15.2-21.9 5.8-44 3.4-59.7-1.6-11.2-1-20.4 2.1-30.3 3-9.9 4.7-19.3 3.7-28.9-1.4-10.8 4-15.2 5-29.4 6.3-7.5 7.5-33.1 5.3-39.6-2.1-6.4 6.5-34.7 6.5-34.7z"/>
			<path id="path656" class="s118" d="m1482.6 964.7l-55-4.4 48.9 28.1z"/>
			<path id="path658" class="s119" d="m1495.9 996.4l-43-25.9c-28.6-17.3-33.6-21.4-33.6-46.7v-22h-36.3-36.4v22c0 25.3-5 29.4-33.5 46.7l-43.1 25.9c0 0-19.9 25.8 0.5 78.1 14.6 37.4 64.2 55.2 112.5 53.7 48.3 1.5 97.9-16.3 112.5-53.7 20.4-52.3 0.4-78.1 0.4-78.1z"/>
			<path id="path660" class="s119" d="m1325.7 856.8c-2.2-7.3-3.4-14-4.8-20-5.2 1.7-7.1 19-5 25.3 2.2 6.2 5 20.9 10 20.2 8-1.2 0.7-19.9-0.2-25.5z"/>
			<path id="path662" class="s119" d="m1440.1 856.8l6.3-20.3c0.9 1.9 6 15 2.7 26.1-1.9 6.3-3.9 20.6-8.8 19.7-8.5-1.6-0.2-25.5-0.2-25.5z"/>
			<path id="path664" class="s120" d="m1419.3 912v-10.2h-72.7v8.8c-3.1-7.7-5-16.4-5-25.5v-1.3h83.1v1.3c0 9.7-2 18.8-5.4 26.9z"/>
			<path id="path666" class="s120" d="m1424.7 883.8h-83.1v-35c0-31.9 18.6-57.8 41.6-57.8 22.9 0 41.5 25.9 41.5 57.8z"/>
			<path id="path668" class="s121" d="m1382.8 943.6c-12.8 0-28.3-13.6-36.2-33v-8.8h36.4 36.3v10.2c-7.7 18.7-22.6 31.6-36.5 31.6z"/>
			<path id="path670" class="s119" d="m1383 773.5c-31.9 0-55.5 26.1-55.5 58l-0.5 36.1c0 15.7 4.4 33 14.6 43.4 10.5 10.7 25.2 26 41.4 26 16.2 0 30.9-15.3 41.4-26 10.1-10.4 14.7-27.7 14.7-43.4l0.8-37.2c0-31.9-25-56.9-56.9-56.9z"/>
			<path id="path672" class="s122" d="m1366 849.9c-3.1-1.6-5-2-6.4-1.9 1.3 5.7-3.9 8.1-7.7 7.9-3.8-0.3-6.7-3.5-6.7-7.3-2.3 0.3-8.2 1-12.3-1.8 8.6 0.6 23.2-11.3 33.1 3.1z"/>
			<path id="path674" class="s122" d="m1400.2 849.9c3.1-1.6 5-2 6.4-1.9-1.2 5.7 4 8.1 7.7 7.9 3.8-0.3 6.8-3.5 6.7-7.3 2.3 0.3 8.2 1 12.3-1.8-8.6 0.6-23.2-11.3-33.1 3.1z"/>
			<path id="path676" class="s123" d="m1365.9 835.4c-1.5-1.3-7.7-3.7-20.1-3.4-5.7 0.1-11.5 5.3-13.8 7.5 3.9-1.2 9.8-3.7 25.5-0.2 12.4 2.8 11.1-1.6 8.4-3.9z"/>
			<path id="path678" class="s123" d="m1401 835.4c1.5-1.3 7.7-3.7 20.3-3.4 5.7 0.1 11.6 5.3 13.8 7.5-3.9-1.2-9.8-3.7-25.6-0.2-12.5 2.8-11.2-1.6-8.5-3.9z"/>
			<path id="path680" class="s117" d="m1440.8 849.7c0-35.3-47.1-63.6-87.8-61.7-13.6 7.4-27.7 37.9-27.8 61.5-16.3-77.6 29.3-82 56.5-82 27.1 0 78.4 5.5 59.1 82.2z"/>
			<path id="path682" class="s51" d="m1382.5 900.9c-4.6 0-21.7 0-21.7 0 4.6 6.3 6.4 17.8 21.7 17.8 15.7 0 18-14.2 21.5-17.8 0 0-16.9 0-21.5 0z"/>
			<path id="path684" class="s52" d="m1382.5 900.4c-4.9 0-21.7 0.5-21.7 0.5 0 0 7.4 11.3 22 11.3 14.6 0 21.2-11.3 21.2-11.3 0 0-16.6-0.5-21.5-0.5z"/>
			<path id="path686" class="s53" d="m1382.5 900.4c-4.4 0-20 0.7-20 0.7 0 0 3.5 3.9 8.1 6.2 3.3 1.1 7.3 1.9 12.2 1.9 4.2 0 7.7-0.6 10.6-1.5 5.3-2.3 8.4-6.4 8.4-6.4 0 0-15-0.9-19.3-0.9z"/>
			<path id="path688" class="s54" d="m1366.6 904.8c4.6 0.6 11.2 1.3 15.9 1.3 4.8 0 11.1-0.7 15.8-1.4 2.2-1.8 3.5-3.4 3.5-3.4 0 0-15-0.9-19.3-0.9-3.8 0-17 0.6-20 0.7 0.1 0.1 1.6 1.8 4.1 3.7z"/>
			<path id="path690" class="s55" d="m1382.5 899.5c-10.5-0.7-21.7 1.4-21.7 1.4 0 0 13.6 3.4 21.7 3.4 8.1 0 21.5-3.4 21.5-3.4 0 0-10.4-1.8-21.5-1.4z"/>
			<path id="path692" class="s124" d="m1370.5 889.9c-4.9-5.2-1.1-12 2.4-15.9 2.5-2.8 5.3-5.9 6.6-11 1-4 0.5-11-0.6-14.2 2.4 3.1 5.3 10.4 4.1 15.2-1.6 6.1-4.3 9.8-7 12.8-3.4 3.9-4 6.9-2.2 9.6 1.3 1.9 7.3 4.3 15.1 3.2-2.4 1.5-13.6 5.5-18.4 0.3z"/>
			<path id="path694" class="s125" d="m1569.4 1629l-49-230.7-118 16.8 0.5-9-140 4.7 7 218.2h111.1l8.3-147.3 18-20.8 46.6 168.1z"/>
			<path id="path696" class="s126" d="m1268.9 1306.5c-8 43.8-17.4 179.8-21.5 240.5 58.1 21.2 270.8 17.4 315.7-7.7l-69.9-239.1-87.7 10.9c0 0-129.1-44.9-136.6-4.6z"/>
			<path id="path698" class="s0" d="m1265.3 1141.2c2.5 12.4 6.5 22.9 6.5 27.8 0 0.9-0.2 1.6 0.1 2.6 0.5 112-26.2 86.1-7.4 124.9 8.9 18.4 99.8 36.8 119.8 37 20-0.2 121.4-4.8 125.4-24.9 9.2-46.6-15.8-54-14.6-134.5 0.2-11.1 11.2-35.7 4.8-60.1l46.3-30.3c0 0-12.8-32.7-21-49.5-12.1-24.8-24.9-35.9-42.7-46.1 0 0-82.7 25.1-96.6 21.1-36.4-15.9-73-27.7-79.4-36l0.5-2.8z"/>
			<path id="path700" class="s127" d="m1271.9 1171.6l-8.7 9.2-7.4-51.6 3.3-71.9 5.2 63.8z"/>
			<path id="path702" class="s63" d="m1513.3 1336.8c-104.9 20.4-196.8 5.2-251.2-15.3l1.8-24.3c59.6 18.5 138.2 31.3 245.8 13.2z"/>
			<path id="path704" class="s127" d="m1498.9 1154.4l7 6.2 3.8-32.1-1.1-71.2-5.2 63.8z"/>
			<path id="path706" class="s128" d="m1493.1 993.9l-16.8-11.3c-23.1 12.1-47.1 17.6-84.6 16.2-31.4-1.2-57.4-14.5-71.2-28.7l-19.7 2.8c0 0 22.2 40.9 91.4 45.8 39.6 2.8 79.1-10.6 100.9-24.8z"/>
			<path id="path708" class="s129" d="m1185.7 1097.6c-12.4-0.8-14.4 19.3-16.1 33.1l101.4 32.1c0 0 113.9-18.3 114.8-21.5 1.5-5.9 2.7-11 3.6-15.4l-198.5-55z"/>
			<path id="path710" class="s130" d="m1393 1102.9l-80.4-99.7c0 0 7-27.7 13.8-36.6 6.8-9 10.4-12.3 10.4-12.3l-25.9 7-27.4 11.6-27.3 24.1-4.3-3.3-16.5 21.9 156.5 97.4c1.1-7.2 1.1-10.1 1.1-10.1z"/>
			<path id="path712" class="s131" d="m1235.4 1015.6l-8.5-4.6-36 59.9 198.5 55c1.2-5.3 2-9.6 2.5-12.9z"/>
			<path id="path714" class="s132" d="m1312.6 1003.2l-19.7-15.8-5.3-11.2z"/>
			<path id="path716" class="s132" d="m1256.2 997l65.2 52-60.7-56z"/>
			<path id="path718" class="s133" d="m1185.7 1097.6l90.8 14-89.1-22.9z"/>
			<path id="path720" class="s129" d="m1169.6 1130.7l215.7 9.3-32.9 36.6-186.9 24.4-2.6-28.8z"/>
			<path id="path722" class="s130" d="m1328.3 1301.3l1.4 173.6c0 0-127.6-97-142.9-130.1-7-15.1-15.5-88.9-15.5-88.9z"/>
			<path id="path724" class="s131" d="m1165.5 1201l186.9-24.4-24.1 144-157-64.7z"/>
			<path id="path726" class="s132" d="m1359.8 1061.7l-13.3 12.7 0.1 12.8-2.5-14.9 14.1-12.6z"/>
			<path id="path728" class="s133" d="m1162.9 1172.2l1 11.3 160-27.5z"/>
			<path id="path730" class="s130" d="m1540 1026.4l-14-36.9-43.4-24.8-122.8 97-4.8 7.5 0.2 10.1z"/>
			<path id="path732" class="s131" d="m1549.2 1071.9l-4.8-46.5-4.4 1-184.8 52.9 0.1 2.9 0.4 7 199.8-0.9c1.9-17.2-6.3-16.4-6.3-16.4z"/>
			<path id="path734" class="s129" d="m1555.5 1088.3l-199.8 0.9 0.6 13.3 98.7 31.4 134.4 73.6c0.6-21.5-25.4-109.9-33.9-119.2z"/>
			<path id="path736" class="s132" d="m1358.3 1068.5l89.1-40 70.7-34.1-68.2 41.3z"/>
			<path id="path738" class="s134" d="m1448 1131.3l-20.3-13.6c0 0-15.4-26.7-17.5-27.7-16.9-7.8-28-17.9-31.3-18.3-3.2-0.4-7.2 0.8-9.4 0.6-2.1-0.2-10.3-2.9-10.9 1.8-0.6 4.6 6.1 9.5 13.3 11.2 1.7 1.6 10.7 6.3 11.3 13.9-8.8-2-20.1-6.3-20.1-6.3l-7.5-6.2-0.3-4.5c0 0-13.8 0.7-15.9 7.6-2.6 6.1 6.6 11.1 6.6 11.1 0 0-3.1 5.1 4.3 15.2-0.4 2 5 18.1 5 18.1 0 0 1 5.5 2.4 6.8 1.3 1.8 4.6 6.9 6.8 8.1 2.1 1.2 25.2 8.6 31.9 9.5 6.8 0.9 20.6 0 36.1 14.7 12.3 11.7 25.2 24.5 25.2 24.5l-2.7-63.9z"/>
			<path id="path740" class="s135" d="m1346 1100.9l10.3 7.8-11-4.7c0 0 0.1-2.1 0.7-3.1z"/>
			<path id="path742" class="s135" d="m1350.3 1116.1c1.8 4.8 5.8 12.6 7.4 13.8 1.5 1.2 5 2.3 6 2-6.6-3.4-10.4-10.6-13.4-15.8z"/>
			<path id="path744" class="s57" d="m1360.6 1074.5c1.8 1.4 7.2 2.9 8.9-1.4-2.8 3.1-8.9 1.4-8.9 1.4z"/>
			<path id="path746" class="s136" d="m1424.8 1078.9l123.6-14.8 0.8 7.8z"/>
			<path id="path748" class="s129" d="m1589.4 1207.5l-134.4-73.6 2.1 51.6 132.5 66.7c-0.4-16.3-0.5-31.7-0.2-44.7z"/>
			<path id="path750" class="s130" d="m1463.4 1326l5.9 175.3c0 0 109.4-85.1 117.7-114.8 3.6-12.8 4.3-38.1 4-66.9z"/>
			<path id="path752" class="s131" d="m1589.6 1252.2l-133.1-83.1 6.9 156.9 127.6-6.4c-0.2-21.7-1-45.4-1.4-67.4z"/>
			<path id="path754" class="s133" d="m1557.7 1187.5l-97.2-50.8 68.8 29z"/>
			<path id="path756" class="s133" d="m1426 1104.5l149.1 36.2c-1.3-4.5-2.7-9-4-13.3z"/>
			<path id="path758" class="s116" d="m1244 990l-12.8 4.7c0 0-17.6-0.3-20.5 4.1-2.9 4.4-6.4 21.4-6.4 21.4 0 0-8.9 11.7-6.3 16.9-2.6 2.1-4.6 7.6-2.6 11 3.8 6.8 10.2 17.5 12.7 17.6 1.2 0 3.6-0.6 4.3-2.2 1.8 0.6 10.7-1.8 6.3-13.6 8.5-2.4 4.2-19.2 1.5-30.2 3-6 4.1-11.4 3.2-14.2 4.3-8.9 20.6-15.5 20.6-15.5z"/>
			<path id="path760" class="s9" d="m1219.3 1039.4c-3.5-5.1-6.3-1.7-5.8 0.2-1.5-3 0.8-4.3 2.3-4.1 2.6 0.3 3.5 3.9 3.5 3.9z"/>
			<path id="path762" class="s9" d="m1214.9 1057.4c-2.5-5.7-5.8-2.7-5.6-0.9-1.1-3.1 1.5-4 2.9-3.6 2.5 0.8 2.7 4.5 2.7 4.5z"/>
			<path id="path764" class="s9" d="m1204.7 1022.1c0 0 2.6 12.9 10.6 24.4-5-11.3-10.6-24.4-10.6-24.4z"/>
			<path id="path766" class="s9" d="m1199.1 1039.6c0 0 3.8 12.6 12.8 23.3-6.1-10.8-12.8-23.3-12.8-23.3z"/>
			<path id="path768" class="s137" d="m1142.1 2069.7h-12.5v86.2h8.5q0.7 0 1.5 0.2 2.5 0.5 2.5 3.9h-37.7v-4.1h12.6v-76.2l-36.4 81.1h-3.3l-34.5-72.6v67.7h8.5q0.8 0 1.6 0.2 2.5 0.5 2.5 3.9h-31.5v-4.1h12.6v-86.2h-12.6v-4.1h22.5l36.5 76.9 34.1-76.9h25.1z"/>
			<path id="path770" fill-rule="evenodd" class="s137" d="m1197.5 2147.4q-1.5 3.3-4.3 6.3-7.9 7.9-19.4 7.9-4.7 0-8.9-1.7-10.6-4.4-10.6-16.4 0-3.5 1-6.5 5.3-15.4 42.3-15.4v-9.9q-0.5-15.3-15.3-16.2-6.3 0-9.2 3.9-0.8 1.1-3 6.9-1.8 4.6-5.4 4.6-0.8 0-1.6-0.2-4.5-0.7-4.5-5.6 0-2.7 1.9-5.4 5.9-8.2 23.6-8.2 1.4 0 2.8 0 22.5 1.3 22.5 23.8v33.2q0.2 7.9 4.3 8.2 5-0.1 6.1-11.6l4.1 0.1q0 0.8-0.2 1.7-1.2 14.7-13.3 14.7-11-0.2-12.9-14.2zm-11.4 6.3q9.2-4.4 11.5-15.2v-12.6q-12.3 0.1-18.7 1.5-12.1 2.9-12.1 13.4 0 2.7 0.4 4.9 2.2 9.6 11.8 9.6 3.5 0 7.1-1.6z"/>
			<path id="path772" class="s137" d="m1268.2 2156.2q2.4 0.4 2.4 3.8h-38.9v-3.9q5.3 0 7.7-0.8 4.1-1.4 4.1-8.7v-49.6h-11.8v-3.9h22.8l0.6 15.6q2.1-4.7 5.5-8.5 7.4-8 16.9-8 1.4 0 3 0.3 7.2 1.5 7.2 8.6 0 1-0.3 1.9-1.3 4.6-6 4.6-0.9 0-1.9-0.3-2.2-0.7-4.7-5.1-2.2-3.9-4.9-3.9-2.3 0.2-5.8 3.5-8.8 8.6-8.8 22.9v31.4h11.3q1 0 1.6 0.1z"/>
			<path id="path774" class="s137" d="m1300.7 2108.7q8.3-17.2 29.4-17.2 8.5 0 15.8 3.6 10.2 5.3 10.2 13.3 0 0.9-0.3 2-1.4 4.7-6.8 4.4-1.9-0.1-3.5-0.9-2.5-1.6-3.4-7.9-0.5-2.7-0.8-3.9-1.7-6.6-10.2-6.6-5.6 0-10.1 2.8-10.9 6.9-10.9 27.6 0 11.6 4.7 20.1 6.3 11.2 17.5 11.2 1.3 0 2.5-0.2 13.4-1.2 19.3-13.7l4 1.4q-1.1 2.7-3 5.4-8.3 11.5-24.7 11.5-11 0-19.7-5.8-14-9.5-14-28.5 0-10.4 4-18.6z"/>
			<path id="path776" class="s137" d="m1399 2156.2q2.3 0.4 2.3 3.8h-35.4v-3.9q5.4 0 7.7-0.8 4.1-1.4 4.1-8.7v-85h-11.8v-3.9h23.6v50.5q1.7-4.5 5.1-8.2 7.8-8.5 19.5-8.5 5 0 9.4 2.2 11.4 6.2 11.4 23.3v39.1h7.8q1 0 1.6 0.1 2.4 0.4 2.4 3.8h-34.7v-3.9q5.4 0 7.6-0.8 3.4-1.4 3.5-8.7v-29.6q-0.1-5.2-1.8-9.4-3.8-9-13.4-9-4.4 0-8.5 2.7-9.9 6.4-9.9 20.8v34h7.9q0.9 0 1.6 0.1z"/>
			<path id="path778" class="s137" d="m1517.6 2117.5q5.7-1.2 10.7-1.2 10.6 0 18 6.1 8.9 7.5 8.9 20 0 9.4-5.9 17.3-9.8 12.9-28.5 12.9-9.8 0-17.4-3.5-11.8-5.6-11.8-16.2 0-1.1 0.3-2.3 1.3-5.4 7-5.4 3 0 4.8 1.3 2.7 2 3.7 9.6 0.3 3.3 0.8 4.9 1.9 7.7 10.3 7.7 1.6 0 3.2-0.2 20.3-1.6 20.3-23.9 0-7.3-2.7-12.9-4.9-10.7-15.9-10.7-5.5 0-11.1 2.3l-3.5-2.8 28.5-32.9-28.2-0.2q-1.3 0.2-2.4 0.3-4.8 0.8-6.6 6l-2.8 8.8h-3.6l0.3-25.9h58.6v3.1z"/>
			<path id="path780" class="s137" d="m1608.8 2076.6v77.9l16.2 1.3q0.6 0 1.3 0.1 2.8 0.7 2.8 4.1h-54.4v-4.1l21.5-1.4v-68.2l-24.5 15.8-2.9-4.6 31.7-20.9z"/>
			<path id="path782" class="s138" d="m264.6 1855.3v106.9h-17.3v-106.9h-37.4v-12.8h92.2v12.8z"/>
			<path id="path784" class="s138" d="m304.3 1874.1h15.2l1.4 12.4q5.3-7.8 11.3-10.9 6-3.2 12.8-3.2 1.8 0 3.8 0.1 2 0.1 3.7 0.2l-1.6 15q-2.3-0.4-4.5-0.6-2.3-0.1-5.1-0.1-5.9 0-10.8 3.5-4.8 3.5-9 9.1v62.6h-17.2z"/>
			<path id="path786" fill-rule="evenodd" class="s138" d="m415.8 1909.5v-2.1q0-6.1-1.1-10.2-1.1-4.1-3.4-6.5-2.3-2.5-6-3.4-3.6-1-8.8-1-3.5 0-7.1 0.4-3.7 0.5-7.1 1.3-3.3 0.8-6.4 1.7-3 1-5.2 2l-3.8-11.9q2.9-1.7 6.6-3.1 3.8-1.3 7.9-2.3 4.1-1 8.3-1.5 4.3-0.5 8.4-0.5 8 0 14.4 1.6 6.5 1.6 11.1 5.5 4.6 4 7 10.8 2.5 6.7 2.5 17.1v54.8h-13.3l-2.4-9.5q-1.7 1.5-4.6 3.4-2.9 1.9-6.8 3.6-3.8 1.7-8.6 2.9-4.7 1.2-10.3 1.2-6.8 0-12.1-2.1-5.2-2.2-8.7-5.8-3.5-3.6-5.2-8.3-1.8-4.8-1.8-10.1 0-5.6 2.8-10.7 2.9-5 7.8-8.9 5-3.8 11.8-6.1 6.9-2.3 15-2.3zm-24.2 41.4q4.7 0 8.7-1 3.9-1.1 7-2.6 3.1-1.4 5.2-2.9 2.2-1.5 3.3-2.3v-21.6h-17.1q-6.8 0-11.1 2.1-4.3 2-6.8 4.8-2.5 2.8-3.4 5.8-0.9 2.9-0.9 4.9 0 3 1.1 5.5 1.2 2.4 3.2 4 2 1.6 4.8 2.5 2.8 0.8 6 0.8z"/>
			<path id="path788" class="s138" d="m460.2 1874.1h15.2l1.4 8.4q6.4-4.7 13.8-7.4 7.3-2.7 16-2.7 6.6 0 12 1.4 5.4 1.5 9.2 5.1 3.7 3.5 5.8 9.6 2.1 6.1 2.1 15.4v58.3h-17.3v-58.3q0-5.2-0.9-8.8-0.9-3.5-2.8-5.7-1.9-2.2-4.9-3.2-3-1-7.1-1-7.5 0-13.7 2.9-6.2 2.8-11.6 7v67.1h-17.2z"/>
			<path id="path790" class="s138" d="m624.2 1937.7q0 6-2.3 10.8-2.4 4.9-6.7 8.3-4.4 3.5-10.6 5.3-6.3 1.8-14.1 1.8-4.7 0-9.4-0.4-4.6-0.5-8.9-1.4-4.3-0.9-8-2.2-3.8-1.2-6.6-2.8l3.3-12.4q3.5 1.4 6.7 2.5 3.2 1.2 6.7 2 3.4 0.9 7.3 1.4 3.9 0.5 8.7 0.5 8.8 0 12.7-3.4 3.9-3.4 3.9-9.5 0-2.7-1.4-4.9-1.4-2.1-4-3.9-2.6-1.7-6.3-3.1-3.7-1.5-8.3-2.7-6-1.6-11.2-3.9-5.2-2.4-9-5.6-3.8-3.1-5.9-7.2-2.2-4.1-2.2-9 0-6 2.3-10.7 2.4-4.8 6.8-8.1 4.5-3.3 10.8-5 6.3-1.7 14.3-1.7 9.6 0 16.9 1.7 7.4 1.8 11.8 3.9l-3.2 12.1q-3.2-1-5.9-1.9-2.7-0.8-5.6-1.5-2.9-0.7-6.2-1.1-3.3-0.4-7.5-0.4-8.8 0-13 3.2-4.2 3.2-4.2 8.6 0 2.7 0.9 4.8 0.9 2.1 3 3.9 2 1.7 5.4 3.2 3.4 1.4 8.4 2.8 7.9 2 13.6 4.5 5.8 2.6 9.5 5.7 3.8 3.2 5.6 7.1 1.9 3.9 1.9 8.7z"/>
			<path id="path792" fill-rule="evenodd" class="s138" d="m643.4 1904.4q0-7.8 2.9-13.8 2.8-6 8-10 5.1-4.1 12.3-6.1 7.2-2.1 15.9-2.1 7.9 0 14.7 1.7h32.6l-1.4 11.3h-12.8q2.9 3.8 4.4 8.5 1.6 4.7 1.6 10.5 0 7.6-2.9 13.5-2.8 6-8 10.1-5.1 4.1-12.3 6.3-7.2 2.2-15.9 2.2-8.4 0-15.5-2-1.5 1.5-2.3 3.6-0.8 2.1-0.8 4.9 0 0.8 0.3 1.9 0.2 1.2 0.7 2.3 0.4 1.2 1 2.2 0.6 1.1 1.1 1.7h26.1q8.4 0 14.8 2 6.5 2 10.7 5.4 4.3 3.5 6.4 8.2 2 4.7 1.9 10.1-0.6 6-4 11.1-3.4 5.1-9.3 8.8-5.8 3.7-13.9 5.8-8.1 2.1-17.9 2.1-5 0-10.2-0.5-5.1-0.4-9.9-1.6-4.8-1.1-9.1-3-4.2-1.8-7.3-4.6-3.1-2.8-4.9-6.5-1.8-3.7-1.8-8.6 0-6.7 3.6-12.2 3.6-5.4 11.7-9.5-2.1-2.3-3.7-5.2-1.6-3-1.6-6.7 0-5.3 2.4-9.1 2.4-3.8 6.4-6.9-6.6-4.1-10.3-10.6-3.7-6.4-3.7-15.2zm21.6 59.5q-2.3 1.5-4 3-1.7 1.5-2.9 3.2-1.1 1.9-1.7 4.1-0.6 2.2-0.6 5.2 0 2.7 1.4 4.6 1.3 1.9 3.6 3.3 2.2 1.4 5.1 2.3 2.8 0.8 5.7 1.3 2.9 0.5 5.7 0.7 2.7 0.2 4.8 0.2 6.3 0 11.4-1.1 5-1.1 8.6-3.1 3.6-2 5.6-4.7 1.9-2.7 1.9-5.8 0-2.8-0.8-5.2-0.8-2.4-2.9-4.2-2.2-1.7-6-2.7-3.9-1.1-9.9-1.1zm-4.3-59.5q0 9 5.4 14.1 5.5 5.1 16.4 5.1 10.9 0 16.4-5.1 5.4-5.1 5.4-14.1 0-4.8-1.6-8.4-1.6-3.6-4.5-6-2.9-2.4-6.9-3.6-4.1-1.2-8.8-1.2-4.8 0-8.8 1.2-4 1.2-6.9 3.6-2.9 2.4-4.5 6-1.6 3.6-1.6 8.4z"/>
			<path id="path794" fill-rule="evenodd" class="s138" d="m760.3 1920.3q0.3 14.7 7.4 22.7 7.1 8.1 20.5 8.1 4.4 0 8.2-0.5 3.7-0.5 6.8-1.2 3.1-0.7 5.6-1.6 2.4-0.8 4.4-1.6l4.2 11.2q-5.5 3.1-13 4.8-7.6 1.7-16.2 1.7-10.8 0-19.2-3-8.4-3-14.2-8.8-5.7-5.8-8.8-14.1-3-8.4-3-19.1 0-11 2.9-19.7 3-8.7 8.4-14.6 5.4-6 13.1-9.1 7.6-3.1 17.1-3.1 7.8 0 14.6 2.4 6.8 2.3 11.8 6.8 5 4.5 7.9 11 2.9 6.5 2.9 14.8v12.9zm24.3-35.1q-4.8 0-8.7 1.1-3.9 1.1-6.9 3.6-3.1 2.7-5.1 6.9-2 4.3-2.9 10.6h43.5q0-6-1.7-10.3-1.7-4.2-4.4-6.8-2.8-2.7-6.4-3.9-3.5-1.2-7.4-1.2z"/>
			<path id="path796" class="s138" d="m843.6 1874.1h15.2l1.4 8.4q6.4-4.7 13.8-7.4 7.3-2.7 16-2.7 6.6 0 12 1.4 5.4 1.5 9.2 5.1 3.8 3.5 5.8 9.6 2.1 6.1 2.1 15.4v58.3h-17.3v-58.3q0-5.2-0.9-8.8-0.9-3.5-2.8-5.7-1.9-2.2-4.9-3.2-3-1-7.1-1-7.5 0-13.7 2.9-6.2 2.8-11.6 7v67.1h-17.2z"/>
			<path id="path798" fill-rule="evenodd" class="s138" d="m1004.3 1954.5q-2.3 2.3-4.9 4-2.5 1.7-5.5 3-2.9 1.2-6.6 1.8-3.7 0.6-8.5 0.6-8.4 0-15.1-3.3-6.7-3.3-11.4-9.3-4.8-6-7.3-14.5-2.6-8.4-2.6-18.8 0-10.4 2.6-18.8 2.5-8.4 7.3-14.4 4.7-5.9 11.4-9.2 6.7-3.2 15.1-3.2 4.4 0 7.9 0.6 3.5 0.6 6.5 1.7 3 1.1 5.5 2.8 2.6 1.7 4.9 3.8v-42.4h17.3v123.3h-15.2zm-44.7-36.5q0 8 1.4 14.1 1.3 6.2 4.3 10.4 2.9 4.2 7.7 6.4 4.7 2.2 11.4 2.2 5.7 0 10.4-1.8 4.8-1.8 8.8-4.6v-53.2q-4-2.8-8.8-4.5-4.7-1.8-10.4-1.8-6.7 0-11.4 2.1-4.8 2.1-7.7 6.3-3 4.1-4.3 10.2-1.4 6.1-1.4 14.2z"/>
			<path id="path800" fill-rule="evenodd" class="s138" d="m1060.5 1920.3q0.4 14.7 7.5 22.7 7.1 8.1 20.4 8.1 4.5 0 8.3-0.5 3.7-0.5 6.8-1.2 3.1-0.7 5.5-1.6 2.5-0.8 4.5-1.6l4.2 11.2q-5.5 3.1-13.1 4.8-7.5 1.7-16.2 1.7-10.7 0-19.1-3-8.4-3-14.2-8.8-5.8-5.8-8.8-14.1-3-8.4-3-19.1 0-11 2.9-19.7 3-8.7 8.4-14.6 5.4-6 13.1-9.1 7.6-3.1 17.1-3.1 7.8 0 14.5 2.4 6.8 2.3 11.8 6.8 5.1 4.5 8 11 2.9 6.5 2.9 14.8v12.9zm24.3-35.1q-4.8 0-8.7 1.1-3.9 1.1-6.9 3.6-3.1 2.7-5.1 6.9-2 4.3-2.9 10.6h43.5q0-6-1.7-10.3-1.7-4.2-4.4-6.8-2.8-2.7-6.4-3.9-3.6-1.2-7.4-1.2z"/>
			<path id="path802" class="s138" d="m1143.8 1874.1h15.3l1.4 12.4q5.2-7.8 11.2-10.9 6-3.2 12.9-3.2 1.7 0 3.7 0.1 2 0.1 3.8 0.2l-1.6 15q-2.3-0.4-4.6-0.6-2.3-0.1-5.1-0.1-5.9 0-10.7 3.5-4.9 3.5-9 9.1v62.6h-17.3z"/>
			<path id="path804" fill-rule="evenodd" class="s138" d="m1250.1 1842.5h36.9q13.1 0 23.7 4.2 10.7 4.3 18.1 12.1 7.4 7.8 11.5 18.8 4 11 4 24.5 0 13.6-4 24.6-4.1 11.1-11.5 19-7.4 7.9-18.1 12.2-10.6 4.3-23.7 4.3h-36.9zm17.2 12.8v94.1h17.8q9.3 0 17.1-2.8 7.7-2.8 13.3-8.6 5.5-5.7 8.5-14.6 3.1-8.9 3.1-21.2 0-12.3-3.1-21.2-3-8.8-8.5-14.5-5.6-5.7-13.3-8.4-7.8-2.8-17.1-2.8z"/>
			<path id="path806" fill-rule="evenodd" class="s138" d="m1419.1 1909.5v-2.1q0-6.1-1.1-10.2-1.1-4.1-3.4-6.5-2.4-2.5-6-3.4-3.7-1-8.9-1-3.4 0-7 0.4-3.7 0.5-7.1 1.3-3.4 0.8-6.4 1.7-3.1 1-5.3 2l-3.7-11.9q2.9-1.7 6.6-3.1 3.7-1.3 7.8-2.3 4.1-1 8.4-1.5 4.3-0.5 8.3-0.5 8 0 14.5 1.6 6.5 1.6 11.1 5.5 4.5 4 7 10.8 2.5 6.7 2.5 17.1v54.8h-13.3l-2.4-9.5q-1.8 1.5-4.7 3.4-2.9 1.9-6.7 3.6-3.8 1.7-8.6 2.9-4.7 1.2-10.3 1.2-6.9 0-12.1-2.1-5.2-2.2-8.7-5.8-3.5-3.6-5.3-8.3-1.7-4.8-1.7-10.1 0-5.6 2.8-10.7 2.8-5 7.8-8.9 5-3.8 11.8-6.1 6.8-2.3 14.9-2.3zm-24.1 41.4q4.6 0 8.6-1 4-1.1 7.1-2.6 3-1.4 5.2-2.9 2.1-1.5 3.2-2.3v-21.6h-17.1q-6.8 0-11.1 2.1-4.3 2-6.7 4.8-2.5 2.8-3.4 5.8-1 2.9-1 4.9 0 3 1.2 5.5 1.1 2.4 3.2 4 2 1.6 4.7 2.5 2.8 0.8 6.1 0.8z"/>
			<path id="path808" class="s138" d="m1516.1 1874.1h17.7l-33.8 93.9q-2.9 8.9-5.8 14.7-3 5.9-6.5 9.4-3.5 3.5-7.8 4.9-4.3 1.5-9.8 1.5-2.9 0-5.7-0.5-2.8-0.4-5.1-1.1l1.6-12q1.5 0 3.5 0.4 1.9 0.3 4 0.3 2.9 0 5-0.8 2.2-0.8 4-2.9 1.8-2 3.6-5.6 1.8-3.6 4-9.3l-32.7-92.9h17.8l22.5 70.4z"/>
			<path id="path810" fill-rule="evenodd" class="s138" d="m1587.7 1918.2q0-10.7 3.1-19.1 3-8.5 8.6-14.4 5.6-6 13.5-9.1 7.8-3.2 17.4-3.2 9.5 0 17.4 3.2 7.9 3.1 13.6 9.1 5.6 5.9 8.7 14.4 3.2 8.4 3.2 19.1 0 10.7-3.2 19.2-3.1 8.4-8.7 14.3-5.7 6-13.6 9.1-7.9 3.1-17.4 3.1-9.6 0-17.4-3.1-7.9-3.1-13.5-9.1-5.6-5.9-8.6-14.3-3.1-8.5-3.1-19.2zm17.2 0q0 8.6 1.9 14.8 1.8 6.3 5.2 10.3 3.3 4 8 5.9 4.7 1.9 10.3 1.9 5.6 0 10.3-1.9 4.7-1.9 8.1-5.9 3.4-4 5.3-10.3 1.9-6.2 1.9-14.8 0-8.7-1.9-14.9-1.9-6.3-5.3-10.3-3.4-4-8.1-5.9-4.7-1.9-10.3-1.9-5.6 0-10.3 1.9-4.7 1.9-8 5.9-3.4 4-5.2 10.3-1.9 6.2-1.9 14.9z"/>
			<path id="path812" class="s138" d="m1688.6 1874.1h10.9v-5.4q0-9.3 2.2-15.4 2.1-6.1 6.2-9.7 4-3.5 9.8-5 5.8-1.4 12.9-1.4 2.3 0 4.7 0.2 2.3 0.2 4.6 0.6 2.3 0.3 4.4 0.8 2 0.5 3.6 1l-0.5 12q-1.3-0.3-3.1-0.6-1.8-0.3-3.8-0.6-2-0.2-4.1-0.4-2.1-0.2-4.1-0.2-4.1 0-7 1-3 1-4.9 3.2-1.9 2.3-2.8 5.8-0.8 3.6-0.8 8.7v5.4h25.9v12.9h-25.9v75.2h-17.3v-75.2h-12.6z"/>
			<path id="path814" class="s138" d="m1833.4 1908.5l10.7 35 10.8-34.7 23.2-66.3h17.7l-43.1 119.7h-17.3l-43-119.7h17.7z"/>
			<path id="path816" class="s138" d="m1916.3 1874.1h17.3v88.1h-17.3zm-0.9-35.4h19v15.5h-19z"/>
			<path id="path818" class="s138" d="m2023.9 1937.7q0 6-2.3 10.8-2.3 4.9-6.7 8.3-4.4 3.5-10.6 5.3-6.2 1.8-14.1 1.8-4.7 0-9.3-0.4-4.7-0.5-9-1.4-4.2-0.9-8-2.2-3.7-1.2-6.5-2.8l3.2-12.4q3.6 1.4 6.8 2.5 3.2 1.2 6.6 2 3.4 0.9 7.3 1.4 3.9 0.5 8.7 0.5 8.8 0 12.8-3.4 3.9-3.4 3.9-9.5 0-2.7-1.4-4.9-1.5-2.1-4-3.9-2.6-1.7-6.3-3.1-3.7-1.5-8.3-2.7-6.1-1.6-11.3-3.9-5.2-2.4-9-5.6-3.7-3.1-5.9-7.2-2.2-4.1-2.2-9 0-6 2.4-10.7 2.3-4.8 6.8-8.1 4.4-3.3 10.7-5 6.4-1.7 14.3-1.7 9.6 0 17 1.7 7.4 1.8 11.7 3.9l-3.2 12.1q-3.1-1-5.9-1.9-2.7-0.8-5.6-1.5-2.8-0.7-6.1-1.1-3.3-0.4-7.5-0.4-8.9 0-13.1 3.2-4.2 3.2-4.2 8.6 0 2.7 0.9 4.8 0.9 2.1 3 3.9 2.1 1.7 5.5 3.2 3.4 1.4 8.4 2.8 7.8 2 13.6 4.5 5.7 2.6 9.5 5.7 3.7 3.2 5.6 7.1 1.8 3.9 1.8 8.7z"/>
			<path id="path820" class="s138" d="m2048 1874.1h17.2v88.1h-17.2zm-0.9-35.4h18.9v15.5h-18.9z"/>
			<path id="path822" fill-rule="evenodd" class="s138" d="m2094.9 1838.8h17.3v43.4q2.5-2.3 5-4.1 2.5-1.8 5.5-3.1 3-1.3 6.7-2 3.7-0.6 8.6-0.6 8.4 0 15.3 3.2 6.8 3.3 11.6 9.2 4.8 6 7.4 14.4 2.7 8.4 2.7 18.8 0 10.4-2.7 18.8-2.6 8.5-7.4 14.5-4.8 6-11.6 9.3-6.9 3.3-15.3 3.3-5 0-8.9-0.8-4-0.7-7.1-2.3-3.2-1.5-5.9-3.7-2.8-2.1-5.5-4.8l-2.4 9.9h-13.3zm62.8 79.2q0-15.9-6-24.3-6.1-8.4-19.3-8.4-6 0-11 1.9-5 1.9-9.2 4.9v51.9q4.2 3 9.2 5.1 5 2 11 2 13.2 0 19.3-8.5 6-8.6 6-24.6z"/>
			<path id="path824" class="s138" d="m2200.7 1874.1h17.2v88.1h-17.2zm-0.9-35.4h18.9v15.5h-18.9z"/>
			<path id="path826" class="s138" d="m2249.5 1838.9h17.2v123.3h-17.2z"/>
			<path id="path828" class="s138" d="m2298.4 1874.1h17.2v88.1h-17.2zm-0.9-35.4h18.9v15.5h-18.9z"/>
			<path id="path830" class="s138" d="m2337 1874.1h12.6v-22.8l17.3-1.8v24.6h26v12.9h-26v47q0 4.4 0.7 7.5 0.7 3.1 2.2 5 1.6 1.9 4 2.7 2.4 0.8 5.8 0.8 2.1 0 4.3-0.1 2.3-0.2 4.4-0.5 2.2-0.2 4.1-0.6 1.9-0.3 3.2-0.5l0.5 11.9q-1.7 0.6-3.8 1.1-2.2 0.5-4.6 0.8-2.4 0.4-5 0.6-2.5 0.2-4.9 0.2-6.6 0-11.8-1.2-5.2-1.3-8.8-4.5-3.7-3.2-5.6-8.8-2-5.6-2-14.4v-47h-14.7z"/>
			<path id="path832" class="s138" d="m2467.3 1874.1h17.8l-33.8 93.9q-3 8.9-5.9 14.7-3 5.9-6.5 9.4-3.5 3.5-7.8 4.9-4.2 1.5-9.8 1.5-2.9 0-5.7-0.5-2.8-0.4-5.1-1.1l1.7-12q1.5 0 3.4 0.4 1.9 0.3 4 0.3 2.9 0 5.1-0.8 2.1-0.8 3.9-2.9 1.8-2 3.6-5.6 1.8-3.6 4-9.3l-32.7-92.9h17.8l22.6 70.4z"/>
		</g>
	</g>
</svg>